<svg width="70" height="50" viewBox="0 0 70 50" fill="none" xmlns="http://www.w3.org/2000/svg">
<rect width="70" height="50" rx="4" fill="#016FD0"/>
<path fill-rule="evenodd" clip-rule="evenodd" d="M13.5977 37.2321V26.3492H25.1819L26.4248 27.9608L27.7087 26.3492H69.7567V36.4815C69.7567 36.4815 68.6571 37.2212 67.3853 37.2321H44.1025L42.7012 35.5166V37.2321H38.1093V34.3036C38.1093 34.3036 37.482 34.7124 36.1259 34.7124H34.563V37.2321H27.6105L26.3694 35.5859L25.1092 37.2321H13.5977Z" fill="white"/>
<path fill-rule="evenodd" clip-rule="evenodd" d="M0.0698242 18.1467L2.68212 12.0888H7.19981L8.68232 15.4822V12.0888H14.2982L15.1808 14.5414L16.0363 12.0888H41.2459V13.3218C41.2459 13.3218 42.5712 12.0888 44.7491 12.0888L52.9287 12.1172L54.3856 15.4662V12.0888H59.0853L60.3788 14.0125V12.0888H65.1216V22.9717H60.3788L59.1392 21.0417V22.9717H52.2344L51.54 21.2562H49.6837L49.0006 22.9717H44.318C42.4439 22.9717 41.2459 21.7638 41.2459 21.7638V22.9717H34.1856L32.7844 21.2562V22.9717H6.53054L5.83664 21.2562H3.98629L3.29729 22.9717H0.0698242L0.0698242 18.1467Z" fill="white"/>
<path fill-rule="evenodd" clip-rule="evenodd" d="M0.083252 21.5792L3.60667 13.4304H6.27786L9.7979 21.5792H7.45345L6.80671 19.9474H3.02729L2.37718 21.5792H0.083252ZM6.06228 18.1783L4.91026 15.3269L3.75488 18.1783H6.06228Z" fill="#016FD0"/>
<path fill-rule="evenodd" clip-rule="evenodd" d="M10.0405 21.5778V13.429L13.3003 13.4411L15.1963 18.6949L17.0469 13.429H20.2807V21.5778H18.2326V15.5734L16.0617 21.5778H14.2656L12.0886 15.5734V21.5778H10.0405Z" fill="#016FD0"/>
<path fill-rule="evenodd" clip-rule="evenodd" d="M21.6819 21.5778V13.429H28.3649V15.2518H23.7515V16.6456H28.2571V18.3612H23.7515V19.8087H28.3649V21.5778H21.6819Z" fill="#016FD0"/>
<path fill-rule="evenodd" clip-rule="evenodd" d="M29.5505 21.5792V13.4304H34.1081C35.6182 13.4304 36.9713 14.3593 36.9713 16.0741C36.9713 17.54 35.8305 18.4842 34.7245 18.577L37.4193 21.5792H34.9165L32.4609 18.6842H31.5986V21.5792H29.5505ZM33.9396 15.2531H31.5986V16.9687H33.97C34.3805 16.9687 34.9098 16.6523 34.9098 16.1109C34.9098 15.6901 34.5012 15.2531 33.9396 15.2531Z" fill="#016FD0"/>
<path fill-rule="evenodd" clip-rule="evenodd" d="M39.8985 21.5778H37.8074V13.429H39.8985V21.5778Z" fill="#016FD0"/>
<path fill-rule="evenodd" clip-rule="evenodd" d="M44.8568 21.5778H44.4054C42.2215 21.5778 40.8955 19.8663 40.8955 17.5369C40.8955 15.15 42.2066 13.429 44.9646 13.429H47.2282V15.359H44.8819C43.7623 15.359 42.9705 16.2281 42.9705 17.557C42.9705 19.1351 43.8759 19.7979 45.1802 19.7979H45.7191L44.8568 21.5778Z" fill="#016FD0"/>
<path fill-rule="evenodd" clip-rule="evenodd" d="M45.79 21.5792L49.3135 13.4304H51.9846L55.5047 21.5792H53.1602L52.5135 19.9474H48.7341L48.084 21.5792H45.79ZM51.7691 18.1783L50.617 15.3269L49.4617 18.1783H51.7691Z" fill="#016FD0"/>
<path fill-rule="evenodd" clip-rule="evenodd" d="M55.7439 21.5778V13.429H58.3477L61.6724 18.5488V13.429H63.7204V21.5778H61.2008L57.7919 16.324V21.5778H55.7439Z" fill="#016FD0"/>
<path fill-rule="evenodd" clip-rule="evenodd" d="M14.9988 35.8382V27.6894H21.6818V29.5122H17.0684V30.9061H21.574V32.6216H17.0684V34.0691H21.6818V35.8382H14.9988Z" fill="#016FD0"/>
<path fill-rule="evenodd" clip-rule="evenodd" d="M47.7458 35.8382V27.6894H54.4289V29.5122H49.8154V30.9061H54.2995V32.6216H49.8154V34.0691H54.4289V35.8382H47.7458Z" fill="#016FD0"/>
<path fill-rule="evenodd" clip-rule="evenodd" d="M21.9412 35.8382L25.1952 31.8141L21.8638 27.6894H24.444L26.428 30.2393L28.4188 27.6894H30.898L27.6104 31.7638L30.8703 35.8382H28.2905L26.364 33.3286L24.4844 35.8382H21.9412Z" fill="#016FD0"/>
<path fill-rule="evenodd" clip-rule="evenodd" d="M31.1135 35.8396V27.6908H35.6374C37.4936 27.6908 38.578 28.8808 38.578 30.4316C38.578 32.3037 37.1954 33.2663 35.3713 33.2663H33.2154V35.8396H31.1135ZM35.4858 29.5337H33.2154V31.41H35.4791C36.0772 31.41 36.4963 31.0157 36.4963 30.4718C36.4963 29.8929 36.0751 29.5337 35.4858 29.5337Z" fill="#016FD0"/>
<path fill-rule="evenodd" clip-rule="evenodd" d="M39.4673 35.8382V27.6894H44.0248C45.5349 27.6894 46.888 28.6183 46.888 30.3331C46.888 31.799 45.7472 32.7432 44.6412 32.836L47.336 35.8382H44.8332L42.3776 32.9433H41.5153V35.8382H39.4673ZM43.8564 29.5122H41.5153V31.2277H43.8867C44.2972 31.2277 44.8265 30.9113 44.8265 30.3699C44.8265 29.9492 44.418 29.5122 43.8564 29.5122Z" fill="#016FD0"/>
<path fill-rule="evenodd" clip-rule="evenodd" d="M55.3772 35.8382V34.0691H59.476C60.0824 34.0691 60.345 33.7431 60.345 33.3855C60.345 33.043 60.0833 32.6967 59.476 32.6967H57.6238C56.0138 32.6967 55.1172 31.7209 55.1172 30.256C55.1172 28.9494 55.9383 27.6894 58.3307 27.6894H62.319L61.4566 29.5229H58.0073C57.348 29.5229 57.145 29.8671 57.145 30.1957C57.145 30.5335 57.3958 30.9061 57.8995 30.9061H59.8398C61.6345 30.9061 62.4133 31.9187 62.4133 33.2448C62.4133 34.6705 61.5455 35.8382 59.7421 35.8382H55.3772Z" fill="#016FD0"/>
<path fill-rule="evenodd" clip-rule="evenodd" d="M62.8941 35.8382V34.0691H66.9928C67.5993 34.0691 67.8619 33.7431 67.8619 33.3855C67.8619 33.043 67.6001 32.6967 66.9928 32.6967H65.1407C63.5307 32.6967 62.634 31.7209 62.634 30.256C62.634 28.9494 63.4551 27.6894 65.8475 27.6894H69.8358L68.9735 29.5229H65.5242C64.8648 29.5229 64.6618 29.8671 64.6618 30.1957C64.6618 30.5335 64.9127 30.9061 65.4164 30.9061H67.3566C69.1514 30.9061 69.9301 31.9187 69.9301 33.2448C69.9301 34.6705 69.0623 35.8382 67.2589 35.8382H62.8941Z" fill="#016FD0"/>
</svg>
