<svg width="70" height="50" viewBox="0 0 70 50" fill="none" xmlns="http://www.w3.org/2000/svg">
<rect width="70" height="50" rx="4" fill="white"/>
<path fill-rule="evenodd" clip-rule="evenodd" d="M11.352 29.6905L13.7276 32.6324H7.846L11.352 29.6905ZM10.6049 28.7818L6.00407 32.6414L6.00219 23.1492L10.6049 28.7818ZM21.675 19.2238C21.675 19.2238 20.665 18.7457 19.4916 18.8155C18.1502 18.8945 17.0279 19.4089 16.3828 20.0878C15.9768 20.5142 15.528 21.0345 15.3026 21.5995C14.9757 22.4169 14.9059 23.4969 14.9059 23.4969C14.9059 23.4969 14.4367 23.0987 13.8489 21.9383C13.1654 20.5887 12.9785 19.7712 12.8858 18.8385C12.8034 18.02 12.9328 17.2107 12.9328 17.2107H21.675V19.2238ZM21.675 21.9148V27.8999C21.675 27.8999 21.1315 28.1086 20.6882 28.1086C20.2449 28.1086 19.4899 28.0429 18.6131 27.5608C17.7427 27.0827 17.2609 26.5042 16.8874 25.98C16.5086 25.4469 16.1958 24.7078 16.1028 24.1751C16.0281 23.749 15.9475 22.6863 16.3828 21.8225C16.6189 21.3537 17.2528 20.5502 18.4731 20.5045C19.4679 20.4663 20.0195 20.7278 20.525 21.0053C21.4871 21.5343 21.675 21.9148 21.675 21.9148ZM12.1558 27.4796L13.7327 26.1652C13.2301 25.5232 13.0973 25.2814 12.5355 24.4526C11.9603 23.6043 11.4786 22.6711 11.0665 21.5761C10.6206 20.3899 10.5129 19.724 10.5621 18.8385C10.6238 17.7119 10.88 17.2107 10.88 17.2107H5.99992L6.00219 19.8408C6.00219 19.8408 9.73773 24.5222 12.1558 27.4796ZM16.6614 32.6281H21.675V28.9724C21.675 28.9724 20.4315 29.5428 19.6231 29.5889C19.1419 29.617 18.6748 29.6355 17.9212 29.435C17.0834 29.2124 16.6074 28.9954 15.831 28.355C15.2073 27.8413 14.4942 27.0827 14.4942 27.0827L12.9081 28.4052C13.644 29.3053 14.1875 29.9605 14.3539 30.1369C15.0692 30.8928 15.3724 31.1706 15.8542 31.44C16.3358 31.71 17.9449 31.6954 17.9449 31.6954L16.6614 32.6281Z" fill="#E94E0F"/>
<path fill-rule="evenodd" clip-rule="evenodd" d="M59.5929 29.3763C59.5929 30.4355 59.7357 32.1766 58.5495 32.6004V32.671H63.0548V32.6004C61.8693 32.1534 62.0116 30.4355 62.0116 29.3763V20.5049C62.0116 19.4463 61.8693 17.7048 63.0548 17.2578V17.1872H58.5495V17.2578C59.7589 17.7048 59.5929 19.4227 59.5929 20.5049V29.3763ZM43.0731 20.5049L51.2065 30.7414C52.2496 32.0824 52.9851 32.8593 54.6685 33.4238V20.2226C54.6685 18.905 54.6685 17.9636 55.9019 17.2578V17.1872H51.7281V17.2578C52.9851 17.9636 52.9609 18.905 52.9609 20.2226V29.1411L44.2827 18.2695L43.9503 17.7988C43.7847 17.6107 43.69 17.4931 43.5951 17.2108V17.1872H40.1325V17.2578C41.3657 17.9636 41.3657 18.905 41.3657 20.2226V29.6122C41.3657 30.9296 41.3657 31.8707 40.1093 32.6004V32.671H44.3065V32.6004C43.0495 31.8707 43.0731 30.9296 43.0731 29.6122V20.5049ZM29.8153 23.4232V18.8111L31.4037 18.6459C32.8267 18.5048 34.3439 19.3521 34.3439 20.976C34.3439 22.9055 32.1387 23.4232 30.5978 23.4232H29.8153ZM29.8153 30.7884V24.9759L31.4748 24.8819C33.5616 24.7642 35.7905 25.7528 35.7905 28.0353C35.7905 30.2708 33.8229 31.1649 31.878 30.9767L29.8153 30.7884ZM27.3963 29.3529C27.3963 30.4355 27.5388 32.1534 26.3528 32.6004V32.671H30.2654C32.0438 32.671 33.9176 32.7418 35.5771 31.9416C37.1659 31.1885 38.4228 29.6352 38.4228 27.8232C38.4228 25.5175 36.6914 24.1054 34.5573 23.6579C35.9091 23.0699 36.9284 22.1758 36.9284 20.5991C36.9284 18.5048 35.103 17.1872 31.9732 17.1872H26.3528V17.2578C27.5627 17.7048 27.3963 19.4227 27.3963 20.4813V29.3529Z" fill="#005B6A"/>
</svg>
