<svg width="70" height="50" viewBox="0 0 70 50" fill="none" xmlns="http://www.w3.org/2000/svg">
<rect width="70" height="50" rx="4" fill="#00529C"/>
<path fill-rule="evenodd" clip-rule="evenodd" d="M20.7513 21.6909H24.0875C25.4386 21.6909 26.4458 22.2887 26.4458 23.5471C26.4458 24.4698 25.9789 24.9836 25.1678 25.2558V25.2766C26.1345 25.4764 26.6333 26.0007 26.6333 26.8915C26.6333 28.643 25.1052 29.0097 23.8063 29.0097H20.7513V21.6909ZM22.6837 24.585H23.2246C23.8585 24.585 24.5136 24.4277 24.5136 23.8085C24.5136 23.1383 23.8898 23.0748 23.2449 23.0748H22.6837V24.585ZM22.6837 27.6258H23.2562C23.9623 27.6258 24.7 27.5208 24.7 26.7763C24.7 25.98 23.9417 25.9059 23.2765 25.9059H22.6837V27.6258Z" fill="white"/>
<path fill-rule="evenodd" clip-rule="evenodd" d="M29.1704 21.6909H31.54L34.3356 29.0097H32.2153L31.6753 27.4478H28.9524L28.3805 29.0097H26.4164L29.1704 21.6909ZM30.3556 23.2012H30.3338L29.3991 26.0639H31.2176L30.3556 23.2012Z" fill="white"/>
<path fill-rule="evenodd" clip-rule="evenodd" d="M34.6047 21.6909H37.0677L39.5205 26.6614H39.5407L39.51 21.6909H41.2773V29.0097H38.8764L36.3398 24.0083H36.3199L36.3819 29.0097H34.6047V21.6909Z" fill="white"/>
<path fill-rule="evenodd" clip-rule="evenodd" d="M41.9334 21.6909H43.8662V24.6801H43.887L46.0687 21.6909H48.3975L45.7157 25.0985L48.6054 29.0097H46.1415L43.887 25.6861H43.8662V29.0097H41.9334V21.6909Z" fill="white"/>
<path fill-rule="evenodd" clip-rule="evenodd" d="M51.0019 21.6909H54.3382C55.6889 21.6909 56.6973 22.2887 56.6973 23.5471C56.6973 24.4698 56.2304 24.9836 55.4194 25.2558V25.2766C56.3857 25.4764 56.8846 26.0007 56.8846 26.8915C56.8846 28.643 55.3567 29.0097 54.0582 29.0097H51.0019V21.6909ZM52.9352 24.585H53.4752C54.1095 24.585 54.7636 24.4277 54.7636 23.8085C54.7636 23.1383 54.1408 23.0748 53.4967 23.0748H52.9352V24.585ZM52.9352 27.6258H53.5072C54.2132 27.6258 54.9515 27.5208 54.9515 26.7763C54.9515 25.98 54.193 25.9059 53.5277 25.9059H52.9352V27.6258Z" fill="white"/>
<path fill-rule="evenodd" clip-rule="evenodd" d="M57.3129 21.6909H60.7634C62.0518 21.6909 63.102 22.2779 63.102 23.5369C63.102 24.5119 62.6446 25.162 61.7095 25.3819V25.4027C62.3318 25.5708 62.3742 26.1262 62.7379 27.0175L63.4449 29.0097H61.429L61.013 27.6894C60.6179 26.4309 60.3683 26.1156 59.6512 26.1156H59.2457V29.0097H57.3129V21.6909ZM59.2457 24.7318H59.7553C60.3788 24.7318 61.1689 24.7104 61.1689 23.8822C61.1689 23.2012 60.4926 23.0748 59.7553 23.0748H59.2457V24.7318Z" fill="white"/>
<mask id="mask0_0_103" style="mask-type:luminance" maskUnits="userSpaceOnUse" x="4" y="18" width="62" height="15">
<path fill-rule="evenodd" clip-rule="evenodd" d="M4 32.7058H65.9102V18.0001H4V32.7058Z" fill="white"/>
</mask>
<g mask="url(#mask0_0_103)">
<path fill-rule="evenodd" clip-rule="evenodd" d="M63.9774 29.0097H65.9102V21.691H63.9774V29.0097Z" fill="white"/>
<path fill-rule="evenodd" clip-rule="evenodd" d="M16.3402 18H6.2234C4.99542 18 3.99994 19.0293 3.99994 20.2991V20.3234V30.4072C3.99994 31.6647 4.97707 32.6869 6.18923 32.7057H16.3348C17.5631 32.7057 18.5589 31.6765 18.5589 30.4072L18.5636 20.2991C18.5636 19.0293 17.5684 18 16.3402 18ZM7.42607 31.5274L6.87408 31.5335C6.206 31.5335 5.66445 30.9798 5.66445 30.2965L5.66129 30.1991V20.864L5.66477 20.3614C5.68976 19.7001 6.18765 19.1678 6.83992 19.1678H7.96193C8.9786 19.1678 9.80327 20.0598 9.80327 21.1123C9.80327 21.6326 9.60113 22.1049 9.27374 22.4483L6.41098 25.379L9.09406 28.1355C9.44012 28.4952 9.64921 28.9682 9.64921 29.4862C9.64921 30.6137 8.65374 31.5274 7.42607 31.5274ZM15.6746 31.5182L10.6722 31.516C10.6722 31.516 11.2508 30.2547 11.2508 29.474C11.2508 28.5223 10.9351 27.6718 10.4413 27.1091L8.73029 25.3494L10.4767 23.5289C10.9964 23.0359 11.3419 22.1607 11.3419 21.164C11.3419 20.3748 11.1255 19.6755 10.7772 19.1678H11.9894C13.0064 19.1678 13.8311 20.0598 13.8311 21.1123C13.8311 21.6326 13.6292 22.1049 13.3018 22.4483L10.4938 25.3484L16.3259 31.3487C16.1412 31.4662 15.9081 31.5182 15.6746 31.5182ZM16.8963 29.6448L12.7166 25.3471L14.7073 23.3059C15.1128 22.7949 15.3697 22.0248 15.3697 21.164C15.3697 20.3697 15.1501 19.6535 14.7987 19.1454L15.6898 19.1722C16.3579 19.1722 16.8994 19.7269 16.8994 20.4099L16.8963 29.6448Z" fill="white"/>
</g>
</svg>
