<svg width="70" height="50" viewBox="0 0 70 50" fill="none" xmlns="http://www.w3.org/2000/svg">
<rect width="70" height="50" rx="4" fill="url(#paint0_linear_0_102)"/>
<path fill-rule="evenodd" clip-rule="evenodd" d="M30.8477 37.2202H34.0936V21.5652H30.8477V37.2202Z" fill="white"/>
<path fill-rule="evenodd" clip-rule="evenodd" d="M37.0698 21.5908V24.5262H39.8025V33.3578C39.8025 34.5765 40.1417 35.555 40.7944 36.293C41.447 37.057 42.3174 37.4347 43.4138 37.4603C44.5019 37.4861 45.4678 37.2456 46.2857 36.7479L46.3381 36.7221V36.6707L47.1125 33.6925L46.9213 33.8127C46.0508 34.3363 45.2502 34.5937 44.5193 34.5937C43.5098 34.5937 42.9961 34.0016 42.9961 32.8343V24.5262H46.3119V21.5908H42.9961V16.6987L39.8025 18.3896V21.5908H37.0698Z" fill="white"/>
<path fill-rule="evenodd" clip-rule="evenodd" d="M49.5058 37.2202H52.7781V21.5652H49.5058V37.2202Z" fill="white"/>
<path fill-rule="evenodd" clip-rule="evenodd" d="M28.9851 24.0283L28.9155 23.9769C27.4187 22.183 25.5476 21.3076 23.3023 21.3076C20.9525 21.3076 19.0206 22.02 17.4715 23.4276C15.8268 24.9124 15 26.9121 15 29.4184C15 31.9245 15.8268 33.9072 17.4715 35.409C18.9944 36.8166 20.9525 37.512 23.3023 37.512C25.5476 37.512 27.4359 36.6279 28.9155 34.8598L28.9851 34.8082L27.1489 32.6196L27.0791 32.6885C25.887 33.8556 24.6076 34.4563 23.2327 34.4563C21.7968 34.4563 20.6132 33.9756 19.6734 33.0232C18.7247 32.0875 18.2721 30.8776 18.2721 29.4184C18.2721 27.9592 18.7247 26.7405 19.6734 25.788C20.6132 24.861 21.7968 24.3802 23.2327 24.3802C24.6076 24.3802 25.887 24.9812 27.0791 26.1485L27.1489 26.2171L28.9851 24.0283Z" fill="white"/>
<path fill-rule="evenodd" clip-rule="evenodd" d="M32.4487 18.9903C33.7279 17.703 35.1553 16.7245 36.7826 16.0293C38.349 15.3597 40.02 15.0336 41.7432 15.0336C43.4575 15.0336 45.1285 15.3597 46.7296 16.0293C48.3221 16.7245 49.7494 17.703 51.0287 18.9903L51.0809 19.0333H54.8056L54.6664 18.8187C53.187 16.7673 51.2726 15.1453 48.9749 13.9607C46.6775 12.785 44.2843 12.2099 41.7432 12.2099C39.2281 12.2099 36.8 12.785 34.5026 13.9607C32.2049 15.1453 30.2904 16.7673 28.8196 18.8187L28.6717 19.0333H32.4226L32.4487 18.9903Z" fill="#EC1C2D"/>
<defs>
<linearGradient id="paint0_linear_0_102" x1="0" y1="0" x2="0" y2="50" gradientUnits="userSpaceOnUse">
<stop stop-color="#2E68C4"/>
<stop offset="1" stop-color="#1E3B80"/>
</linearGradient>
</defs>
</svg>
