<svg width="70" height="50" viewBox="0 0 70 50" fill="none" xmlns="http://www.w3.org/2000/svg">
<rect width="70" height="50" rx="4" fill="white"/>
<path fill-rule="evenodd" clip-rule="evenodd" d="M8.0203 25.6298H8.95104C9.48636 25.6298 9.91581 25.6717 10.3894 26.2167C10.7216 26.5908 11.0906 27.4258 11.0906 28.7693C11.0906 29.2543 11.0979 29.7317 11.0069 30.2232C10.8564 31.0004 10.4976 32.2415 8.44126 32.2415C7.89285 32.2415 8.0203 32.2275 8.0203 32.2275V25.6298ZM9.08061 33.3873C11.8467 33.3873 13.0869 32.1586 13.0869 28.8037C13.0869 27.916 12.8244 26.4301 11.9921 25.5215C11.1335 24.5914 10.024 24.4731 9.0829 24.4731H6V33.3873H9.08061Z" fill="#004F38"/>
<path fill-rule="evenodd" clip-rule="evenodd" d="M17.8158 31.0792C17.8158 31.374 17.8028 31.7706 17.4917 32.0532C17.2268 32.2845 16.8573 32.3035 16.7111 32.3035C16.3616 32.3035 16.0493 32.176 15.9141 31.7471C15.8801 31.6091 15.8653 31.4716 15.8653 31.339C15.8653 30.6875 16.2992 30.4134 16.7826 30.2982C17.0376 30.2408 17.2054 30.2272 17.8158 30.1773V31.0792ZM17.8158 29.3728L16.807 29.4709C15.7171 29.5979 15.3052 29.6959 14.8377 30.0021C14.088 30.5105 14.0782 31.253 14.0782 31.498C14.0782 32.1057 14.2623 32.5651 14.5152 32.83C14.8497 33.2152 15.3776 33.3577 15.8884 33.3577C17.1396 33.3577 17.7361 32.7921 17.7361 32.7921L17.7487 33.195H19.4307V28.977C19.4307 28.501 19.4443 27.8365 18.896 27.3628C18.6115 27.1167 18.3596 27.006 17.9743 26.9492C17.5873 26.8824 17.4508 26.8554 17.078 26.8554C15.9411 26.8554 15.0811 27.0525 14.59 27.9198C14.3789 28.2946 14.394 28.6704 14.394 28.9579H15.9411C15.9536 28.7073 15.9637 28.3609 16.164 28.1195C16.2636 27.9822 16.4975 27.7871 16.929 27.7871C17.0695 27.7871 17.4804 27.7871 17.6891 28.125C17.8028 28.3252 17.8158 28.5873 17.8158 28.8818V29.3728Z" fill="#004F38"/>
<path fill-rule="evenodd" clip-rule="evenodd" d="M31.2496 31.0792C31.2496 31.374 31.2375 31.7706 30.9224 32.0532C30.6655 32.2845 30.2915 32.3035 30.1415 32.3035C29.7936 32.3035 29.4811 32.176 29.3482 31.7471C29.3132 31.6091 29.3018 31.4716 29.3018 31.339C29.3018 30.6875 29.7319 30.4134 30.218 30.2982C30.4731 30.2408 30.6405 30.2272 31.2496 30.1773V31.0792ZM31.2496 29.3728L30.2418 29.4709C29.1479 29.5979 28.7416 29.6959 28.2714 30.0021C27.5251 30.5105 27.5119 31.253 27.5119 31.498C27.5119 32.1057 27.6959 32.5651 27.9471 32.83C28.2839 33.2152 28.8156 33.3577 29.324 33.3577C30.5761 33.3577 31.1713 32.7921 31.1713 32.7921L31.1815 33.195H32.8646V28.977C32.8646 28.501 32.8759 27.8365 32.3321 27.3628C32.0463 27.1167 31.7905 27.006 31.4079 26.9492C31.022 26.8824 30.8868 26.8554 30.5116 26.8554C29.3742 26.8554 28.5147 27.0525 28.0258 27.9198C27.8141 28.2946 27.8283 28.6704 27.8283 28.9579H29.3742C29.3884 28.7073 29.3991 28.3609 29.5983 28.1195C29.6945 27.9822 29.9288 27.7871 30.3651 27.7871C30.5038 27.7871 30.915 27.7871 31.1266 28.125C31.2375 28.3252 31.2496 28.5873 31.2496 28.8818V29.3728Z" fill="#004F38"/>
<path fill-rule="evenodd" clip-rule="evenodd" d="M56.6686 33.1951H54.9099V29.4204C54.9099 29.1768 54.9099 28.9773 54.8855 28.7709C54.8725 28.5739 54.8114 27.931 54.0452 27.931C53.8416 27.931 53.6694 27.9822 53.5587 28.0278C53.0396 28.2662 53.0272 28.6842 53.0158 29.0186V33.1951H51.2499V27.0164H53.0158V27.7202C53.4607 27.3254 53.8597 26.8943 54.8476 26.8943C55.6794 26.8943 56.0907 27.2134 56.2606 27.4105C56.6528 27.8473 56.6528 28.4157 56.6686 28.8592V33.1951Z" fill="#004F38"/>
<path fill-rule="evenodd" clip-rule="evenodd" d="M26.2201 33.1951H24.4596V29.4204C24.4596 29.1768 24.4596 28.9773 24.4313 28.7709C24.4212 28.5739 24.36 27.931 23.5848 27.931C23.3913 27.931 23.2176 27.9822 23.1073 28.0278C22.5856 28.2662 22.5707 28.6842 22.5595 29.0186V33.1951H20.7947V27.0164H22.5595V27.7202C23.0088 27.3254 23.4038 26.8943 24.3946 26.8943C25.2281 26.8943 25.635 27.2134 25.8086 27.4105C26.2053 27.8473 26.2053 28.4157 26.2201 28.8592V33.1951Z" fill="#004F38"/>
<path fill-rule="evenodd" clip-rule="evenodd" d="M34.154 27.0132H35.9193V27.7329C36.2567 27.4299 36.8526 26.8872 37.9136 26.8872C39.1228 26.8872 39.4595 27.6073 39.5438 27.8409C40.2626 27.1499 40.7379 26.8872 41.4298 26.8872C41.766 26.8872 42.0003 26.9426 42.2244 27.0238C43.1706 27.3847 43.1937 28.2261 43.2088 28.7697V33.189H41.4191V29.165C41.4079 28.7259 41.3954 28.4811 41.2781 28.2859C41.2584 28.2364 41.0819 27.9269 40.6376 27.9269C40.4877 27.9269 40.1997 27.9636 40.0633 28.0389C39.5727 28.2747 39.5529 28.6786 39.5438 29.01V33.189H37.7947V29.189C37.7947 28.715 37.8034 27.9269 37.0031 27.9269C36.826 27.9269 36.5125 27.9775 36.3575 28.0636C35.9193 28.3332 35.907 28.7259 35.9193 29.2759V33.189H34.154V27.0132Z" fill="#004F38"/>
<path fill-rule="evenodd" clip-rule="evenodd" d="M48.4148 29.9706C48.4148 30.3245 48.4008 30.6581 48.3657 31C48.3283 31.339 48.2707 32.0242 47.7405 32.3127C47.5882 32.3849 47.4286 32.423 47.264 32.423C46.264 32.423 46.1745 31.3809 46.1521 31C46.1298 30.7154 46.113 30.4352 46.113 30.159C46.113 29.913 46.1298 29.57 46.1667 29.1654C46.2024 28.8383 46.2732 28.2111 46.7829 27.9161C46.9578 27.8288 47.1253 27.7922 47.3189 27.7922C48.2707 27.7922 48.3549 28.7811 48.3776 29.1654C48.4008 29.4353 48.4148 29.7081 48.4148 29.9706ZM50.2127 30.0022C50.2127 29.456 50.2127 28.4306 49.6026 27.7325C48.8603 26.8554 47.7999 26.8554 47.4286 26.8554C46.9928 26.8554 45.9925 26.8734 45.2089 27.5792C44.3214 28.3692 44.3214 29.6235 44.3214 30.2605C44.3214 31.4673 44.5948 32.7453 46.1298 33.189C46.5765 33.3267 46.8151 33.3489 47.264 33.3489C47.6866 33.3489 48.737 33.3489 49.5184 32.4834C50.2127 31.721 50.2127 30.5717 50.2127 30.0022Z" fill="#004F38"/>
<path fill-rule="evenodd" clip-rule="evenodd" d="M6 12V16.2402H15.1786V13.931L6 12Z" fill="#F15B22"/>
<path fill-rule="evenodd" clip-rule="evenodd" d="M26.1575 16.2402L15.1764 12L15.1786 13.931L26.1575 16.2402Z" fill="#FFC222"/>
<path fill-rule="evenodd" clip-rule="evenodd" d="M15.1763 16.2402H26.1533L15.1763 13.931V16.2402Z" fill="#F7931D"/>
<path fill-rule="evenodd" clip-rule="evenodd" d="M26.1549 16.2364V16.2402L49.2132 21.0944V16.2364H26.1549Z" fill="#F15B22"/>
<path fill-rule="evenodd" clip-rule="evenodd" d="M63.9989 24.2065V16.2362H49.2139V21.0961L63.9989 24.2065Z" fill="#F7931D"/>
<path fill-rule="evenodd" clip-rule="evenodd" d="M49.2132 21.0961L26.1598 16.2417L49.2132 24.2103V21.0961Z" fill="#FFC222"/>
</svg>
