<svg width="70" height="50" viewBox="0 0 70 50" fill="none" xmlns="http://www.w3.org/2000/svg">
<rect width="70" height="50" rx="4" fill="#FFC134"/>
<rect x="6.77936" y="19.8267" width="8.63235" height="9" fill="white"/>
<path fill-rule="evenodd" clip-rule="evenodd" d="M16.8676 21.4158C16.2794 22.6782 16.25 23.3911 16.25 24.1931C16.25 24.995 16.2794 25.7079 16.8676 26.9703C16.888 27.017 16.9118 27.0663 16.9368 27.118C17.1107 27.4775 17.3415 27.9547 16.8529 28.5C16.397 28.9604 15.8823 28.8713 15.5441 28.6782C15.7353 29.0346 15.8088 29.5544 15.3676 30C14.813 30.4935 14.3295 30.2444 13.9704 30.0594C13.9296 30.0383 13.8904 30.0182 13.8529 30C12.6029 29.4059 11.897 29.3762 11.1029 29.3762C10.3088 29.3762 9.60291 29.4059 8.35291 30C8.31237 30.0196 8.26986 30.0418 8.22548 30.065C7.86743 30.2518 7.38774 30.5021 6.83821 30C6.39703 29.5396 6.47056 29.0198 6.66174 28.6782C6.30879 28.8713 5.79409 28.9604 5.35291 28.5C4.85033 27.939 5.09712 27.4501 5.28025 27.0873C5.30075 27.0467 5.32045 27.0077 5.33821 26.9703C5.92644 25.7079 5.95585 24.995 5.95585 24.1931C5.95585 23.3911 5.92644 22.6782 5.33821 21.4158C5.31786 21.3691 5.29403 21.3199 5.26902 21.2682C5.09516 20.9087 4.86436 20.4315 5.35291 19.8861C5.80879 19.4406 6.3235 19.5148 6.66174 19.7079C6.47056 19.3515 6.39703 18.8317 6.83821 18.3861C7.39369 17.8786 7.8778 18.1278 8.23706 18.3128C8.27727 18.3334 8.31591 18.3533 8.35291 18.3713C9.60291 18.9653 10.3088 18.995 11.1029 18.995C11.897 18.995 12.6029 18.9653 13.8529 18.3713C13.8991 18.3507 13.9479 18.3267 13.9991 18.3014C14.3551 18.1258 14.8276 17.8927 15.3676 18.3861C15.8088 18.8465 15.7353 19.3663 15.5441 19.7079C15.897 19.5148 16.397 19.4257 16.8529 19.8861C17.3555 20.4471 17.1087 20.936 16.9256 21.2988C16.9051 21.3394 16.8854 21.3785 16.8676 21.4158ZM11.9706 25.5297L14.8823 27.995L12.4411 25.0396C12.4411 25.0396 12.0588 24.6386 12.0588 24.1931C12.0588 23.7475 12.4411 23.3465 12.4411 23.3465L14.897 20.3911L14.8823 20.3762L11.9706 22.8564C11.9706 22.8564 11.5735 23.2426 11.1323 23.2426C10.6911 23.2426 10.2941 22.8564 10.2941 22.8564L7.36762 20.3762L7.35291 20.3911L9.80879 23.3465C9.80879 23.3465 10.1911 23.7475 10.1911 24.1931C10.1911 24.6386 9.80879 25.0396 9.80879 25.0396L7.35291 27.995H7.36762L10.2941 25.5297C10.2941 25.5297 10.6911 25.1436 11.1323 25.1436C11.5735 25.1436 11.9706 25.5297 11.9706 25.5297Z" fill="url(#paint0_radial_0_91)"/>
<path d="M10.1911 24.1931C10.1911 23.7475 9.80879 23.3465 9.80879 23.3465L7.39702 20.4505L9.26467 23.7178C9.44114 24.0149 9.44114 24.3861 9.26467 24.6832L7.35291 27.9951L9.80879 25.0396C9.80879 25.0396 10.1911 24.6386 10.1911 24.1931Z" fill="url(#paint1_linear_0_91)"/>
<path d="M11.6912 22.6039C11.3382 22.8861 10.8676 22.9307 10.4706 22.7228L9.41174 22.1138L10.2941 22.8564C10.2941 22.8564 10.6912 23.2426 11.1323 23.2426C11.5735 23.2426 11.9706 22.8564 11.9706 22.8564L14.8823 20.3762L15.4117 19.8119L11.6912 22.6039Z" fill="url(#paint2_linear_0_91)"/>
<path d="M15.5588 28.6634L14.897 27.9802L14.8823 27.995L11.9706 25.5297C11.9706 25.5297 11.5735 25.1436 11.1323 25.1436C10.6912 25.1436 10.2941 25.5297 10.2941 25.5297L9.41174 26.2723L10.2206 25.8267C10.7206 25.5445 11.3382 25.5891 11.8088 25.9307L15.5588 28.6634Z" fill="url(#paint3_linear_0_91)"/>
<path d="M10.4118 28.5297L9.74999 27.9653C9.74999 27.9653 9.66175 27.8762 9.55881 27.8762C9.45587 27.8762 9.36764 27.9653 9.36764 27.9653L8.70587 28.5297L9.2647 27.8614C9.2647 27.8614 9.35293 27.7723 9.35293 27.6683C9.35293 27.5643 9.2647 27.4752 9.2647 27.4752L8.70587 26.8069L9.36764 27.3713C9.36764 27.3713 9.45587 27.4604 9.55881 27.4604C9.66175 27.4604 9.74999 27.3713 9.74999 27.3713L10.4118 26.8069L9.85293 27.4752C9.85293 27.4752 9.7647 27.5643 9.7647 27.6683C9.7647 27.7723 9.85293 27.8614 9.85293 27.8614L10.4118 28.5297Z" fill="white"/>
<path d="M14.3823 21L14.897 21.4307L14.4559 20.9109L14.3823 21Z" fill="white"/>
<path d="M14.2647 20.6881L13.9265 20.2871C13.9265 20.2871 13.7794 20.1238 13.7794 19.9604C13.7794 19.7822 13.9265 19.6337 13.9265 19.6337L14.8823 18.4753L13.7353 19.4406C13.7353 19.4406 13.5735 19.5891 13.4118 19.5891C13.2353 19.5891 13.0882 19.4406 13.0882 19.4406L12.4706 18.8911C12.4265 18.9059 12.3823 18.9059 12.3382 18.9208L12.9118 19.604C12.9118 19.604 13.0588 19.7673 13.0588 19.9307C13.0588 20.1089 12.9118 20.2574 12.9118 20.2574L11.9559 21.4158L13.1029 20.4505C13.1029 20.4505 13.2647 20.302 13.4265 20.302C13.6029 20.302 13.75 20.4505 13.75 20.4505L14.1323 20.7772" fill="white"/>
<path d="M14.1323 20.7921L14.2647 20.9109L14.3823 20.8069L14.2647 20.6881" fill="#EAEAEA"/>
<path fill-rule="evenodd" clip-rule="evenodd" d="M24.9705 27.0297H25H25.0147V27.9802H26.1911V18.0446H24.9558V22.1584H24.9264C24.5441 21.5347 23.8676 21.0743 22.7058 21.0743C20.7647 21.0743 19.8235 22.6782 19.8235 24.4901C19.8235 26.3317 20.6764 28.1436 22.6911 28.1436C23.8823 28.1436 24.647 27.5347 24.9705 27.0297ZM24.9411 24.6238C24.9411 25.7525 24.3676 27.1485 22.9705 27.1485C21.647 27.1485 21.0882 25.6485 21.1176 24.5941C21.0882 23.3614 21.6176 22.0842 22.9558 22.0842C24.2941 22.0842 24.9411 23.3614 24.9411 24.6238Z" fill="#1D1D1B"/>
<path fill-rule="evenodd" clip-rule="evenodd" d="M27.4265 19.7228H28.8235V18.3119H27.4265V19.7228ZM28.75 21.2228H27.5147V27.9802H28.75V21.2228Z" fill="#1D1D1B"/>
<path fill-rule="evenodd" clip-rule="evenodd" d="M32.75 30.9356C35.1617 30.9356 36.2058 29.7475 36.2058 27.698H36.1911V21.2376H35.0441V22.2475H35.0147C34.647 21.5049 33.9853 21.0742 32.8088 21.0742C30.7941 21.0742 29.8235 22.9307 29.8235 24.6683C29.8235 26.4208 30.7794 27.995 32.6911 27.995C33.5441 27.995 34.4117 27.6386 34.9411 26.9406H34.9705V27.6089C34.9705 29.0346 34.1911 29.9257 32.897 29.9257C32 29.9257 31.4264 29.7475 30.4853 29.3168L30.3529 30.4752C31.4264 30.8465 32.0441 30.9356 32.75 30.9356ZM33.0147 22.0693C34.3235 22.0693 34.9705 23.2723 34.9705 24.6832C34.9705 25.9455 34.1617 26.9851 33.0147 26.9851C31.8529 26.9851 31.147 25.8713 31.147 24.5941C31.147 23.4356 31.7647 22.0693 33.0147 22.0693Z" fill="#1D1D1B"/>
<path fill-rule="evenodd" clip-rule="evenodd" d="M37.2646 19.7228H38.6617V18.3119H37.2646V19.7228ZM38.5735 21.2228H37.3382V27.9802H38.5735V21.2228Z" fill="#1D1D1B"/>
<path fill-rule="evenodd" clip-rule="evenodd" d="M40.8382 18.0446H40.0146V27.9802H40.8382V26.9109H40.8676C41.3088 27.7723 41.9999 28.1436 42.9558 28.1436C44.7941 28.1436 45.7058 26.6139 45.7058 24.6089C45.7058 22.5594 44.9264 21.0743 42.9558 21.0743C41.647 21.0743 40.9852 22.0396 40.8676 22.3663H40.8382V18.0446ZM40.8382 24.6089C40.8382 23.3762 41.3088 21.7871 42.8235 21.7871C44.4117 21.7871 44.8088 23.302 44.8088 24.6089C44.8088 25.9158 44.397 27.4307 42.8235 27.4307C41.3529 27.4307 40.8382 25.8416 40.8382 24.6089Z" fill="#1D1D1B"/>
<path fill-rule="evenodd" clip-rule="evenodd" d="M50.75 26.8961H50.7647V27.9802H51.5735C51.5147 27.5198 51.5147 27.1188 51.5147 26.5693V23.5842C51.5147 21.8168 50.8088 21.0594 49.1617 21.0594C48.5735 21.0594 47.7059 21.2673 47.1912 21.5198V22.3218C47.8088 21.9357 48.4706 21.7723 49.1617 21.7723C50.2794 21.7723 50.6912 22.3515 50.6912 23.5099V23.8515H50.5294C48.7941 23.8515 46.4117 23.9555 46.4117 26.2277C46.4117 26.8515 46.7206 28.1436 48.6176 28.1436C49.4559 28.1436 50.3823 27.698 50.75 26.8961ZM50.4706 24.5792H50.7059H50.7206V24.9951C50.7206 25.7228 50.6764 27.4307 48.7353 27.4307C47.9706 27.4307 47.3382 27.104 47.3382 26.2129C47.3382 24.7277 49.0441 24.5792 50.4706 24.5792Z" fill="#1D1D1B"/>
<path d="M52.7793 22.8267C52.7793 22.3069 52.7793 21.7723 52.7205 21.2376H53.5146V22.4406H53.544C53.8235 21.8317 54.3235 21.0742 55.7058 21.0742C57.3529 21.0742 57.9852 22.1881 57.9852 23.6733V27.995H57.1617V23.8812C57.1617 22.604 56.7205 21.7871 55.5735 21.7871C54.0588 21.7871 53.5882 23.1238 53.5882 24.2525V27.995H52.7646V22.8267H52.7793Z" fill="#1D1D1B"/>
<path d="M59.2205 18.0446H60.044V24L63.0293 21.2228H64.0882L60.8235 24.2228L64.4852 27.9802H63.3382L60.0293 24.505V27.9802H59.2058V18.0446H59.2205Z" fill="#1D1D1B"/>
<path fill-rule="evenodd" clip-rule="evenodd" d="M53.3971 28.8119H53V32.0198H53.3824V31.7079H53.4118C53.5147 31.8713 53.7647 32.0644 54.1471 32.0644C54.7941 32.0644 55.0735 31.4703 55.0735 30.8762C55.0735 30.297 54.7647 29.7772 54.1324 29.7772C53.75 29.7772 53.5294 29.9258 53.4118 30.1337H53.3971V28.8119ZM53.3971 30.9357C53.3971 30.5347 53.6176 30.1188 54.0441 30.1188C54.4706 30.1188 54.6471 30.5347 54.6324 30.9208C54.6324 31.2624 54.4559 31.7525 54.0294 31.7525C53.5882 31.7525 53.3971 31.3069 53.3971 30.9357Z" fill="#1D1D1B"/>
<path d="M55.2794 32.6287C55.3235 32.6436 55.397 32.6584 55.4706 32.6584C55.8235 32.6584 55.9411 32.1683 55.9411 32.1238C55.9411 32.0792 55.897 31.9604 55.8676 31.8862L55.1323 29.8515H55.5735L56.1617 31.6634H56.1764L56.7647 29.8515H57.1617L56.3676 32.0792C56.2206 32.4951 56.0588 32.9852 55.5294 32.9852C55.397 32.9852 55.3235 32.9703 55.2647 32.9555L55.2794 32.6287Z" fill="#1D1D1B"/>
<path fill-rule="evenodd" clip-rule="evenodd" d="M59.0294 29.0347H58.1617V32.0198H59.0294C60 32.0198 60.6029 31.5149 60.6029 30.505C60.6029 29.5842 59.9117 29.0347 59.0294 29.0347ZM59.0294 31.6485H58.5882H58.5735V29.406H59.0735C59.6912 29.406 60.1617 29.8218 60.1617 30.5198C60.1617 31.2921 59.7647 31.6485 59.0294 31.6485Z" fill="#1D1D1B"/>
<path fill-rule="evenodd" clip-rule="evenodd" d="M60.9706 29.0347H61.7794C62.3971 29.0347 62.8235 29.2426 62.8235 29.7921C62.8235 30.2079 62.5882 30.4159 62.2059 30.505V30.5198C62.6029 30.5495 62.8971 30.8168 62.8971 31.2327C62.8971 31.8713 62.3676 32.0347 61.7647 32.0347H60.9706V29.0347ZM61.4118 30.3119H61.6323C62.0441 30.3119 62.3971 30.2673 62.3971 29.8366C62.3971 29.4802 62.1029 29.3911 61.8529 29.3911H61.4118V30.3119ZM61.7206 31.6782H61.3971V30.6535H61.6765C62.0441 30.6535 62.4412 30.7277 62.4412 31.1881C62.4412 31.604 62.1029 31.6782 61.7206 31.6782Z" fill="#1D1D1B"/>
<path d="M64.6912 29.495C64.4706 29.4059 64.3529 29.3762 64.1323 29.3762C63.897 29.3762 63.6176 29.4653 63.6176 29.7772C63.6176 30.3564 64.897 30.2228 64.897 31.203C64.897 31.8416 64.4117 32.0941 63.8088 32.0941C63.6029 32.0941 63.397 32.0346 63.2059 31.9752L63.25 31.5743C63.397 31.6337 63.647 31.7228 63.8676 31.7228C64.1029 31.7228 64.4559 31.5891 64.4559 31.2327C64.4559 30.5643 63.1765 30.7426 63.1765 29.8218C63.1765 29.2871 63.5882 29.0049 64.1323 29.0049C64.3235 29.0049 64.5588 29.0346 64.7647 29.1089L64.6912 29.495Z" fill="#1D1D1B"/>
<defs>
<radialGradient id="paint0_radial_0_91" cx="0" cy="0" r="1" gradientUnits="userSpaceOnUse" gradientTransform="translate(11.9462 23.0266) scale(6.99127 7.05756)">
<stop offset="0.1684" stop-color="#F29020"/>
<stop offset="0.3042" stop-color="#F18D21"/>
<stop offset="0.4222" stop-color="#F08224"/>
<stop offset="0.5333" stop-color="#ED702A"/>
<stop offset="0.5765" stop-color="#EB672D"/>
<stop offset="0.6167" stop-color="#EA5E2F"/>
<stop offset="0.6834" stop-color="#E74433"/>
<stop offset="0.7143" stop-color="#E63635"/>
<stop offset="0.7553" stop-color="#E43231"/>
<stop offset="0.8001" stop-color="#DE2425"/>
<stop offset="0.8367" stop-color="#D71416"/>
<stop offset="0.9694" stop-color="#BA1819"/>
</radialGradient>
<linearGradient id="paint1_linear_0_91" x1="7.35446" y1="20.5076" x2="7.35446" y2="28.0353" gradientUnits="userSpaceOnUse">
<stop stop-color="#6B2A70"/>
<stop offset="0.0967907" stop-color="#742D6C"/>
<stop offset="0.2518" stop-color="#8B3362"/>
<stop offset="0.4456" stop-color="#B13F51"/>
<stop offset="0.6689" stop-color="#E64E39"/>
<stop offset="0.6786" stop-color="#E84F38"/>
</linearGradient>
<linearGradient id="paint2_linear_0_91" x1="11.979" y1="24.6158" x2="15.881" y2="20.1598" gradientUnits="userSpaceOnUse">
<stop offset="0.0408163" stop-color="#81358A"/>
<stop offset="0.199" stop-color="#A63E64"/>
<stop offset="0.283" stop-color="#AE475D"/>
<stop offset="0.4175" stop-color="#C45E4A"/>
<stop offset="0.5847" stop-color="#E7842A"/>
<stop offset="0.6326" stop-color="#F29020"/>
</linearGradient>
<linearGradient id="paint3_linear_0_91" x1="9.4074" y1="28.6627" x2="15.5593" y2="28.6627" gradientUnits="userSpaceOnUse">
<stop stop-color="#AA3364"/>
<stop offset="0.161" stop-color="#B3375E"/>
<stop offset="0.4187" stop-color="#CA414D"/>
<stop offset="0.6786" stop-color="#E84F38"/>
<stop offset="0.7256" stop-color="#E74B35"/>
<stop offset="0.777" stop-color="#E33D2E"/>
<stop offset="0.8303" stop-color="#DD2821"/>
<stop offset="0.8673" stop-color="#D71416"/>
<stop offset="1" stop-color="#C41512"/>
</linearGradient>
</defs>
</svg>
