<svg width="70" height="50" viewBox="0 0 70 50" fill="none" xmlns="http://www.w3.org/2000/svg">
<rect width="70" height="50" rx="4" fill="#FD6542"/>
<path fill-rule="evenodd" clip-rule="evenodd" d="M29.2129 10.0474C29.026 10.1833 29.032 10.4117 29.0377 10.6267V10.6267V10.6267V10.6268C29.0394 10.6913 29.0411 10.7547 29.0375 10.814C29.0493 11.065 28.9923 11.307 28.9352 11.5492C28.8876 11.7512 28.84 11.9533 28.8323 12.1609C28.8284 12.2813 28.8143 12.4007 28.8001 12.5201C28.7849 12.6486 28.7698 12.777 28.7673 12.9065C28.7604 13.3419 28.6833 13.7695 28.6063 14.1968C28.5693 14.4017 28.5324 14.6066 28.5032 14.8122C28.498 15.0295 28.4788 15.2457 28.4595 15.4618V15.4618V15.4618V15.4618C28.441 15.6699 28.4225 15.8781 28.4165 16.0874C28.3875 16.2852 28.3487 16.4822 28.3099 16.6794L28.3099 16.6794C28.2291 17.0894 28.1482 17.5 28.1551 17.9199C28.1658 18.3561 28.0873 18.7827 28.0089 19.2096V19.2096V19.2096V19.2096L28.0089 19.2096C27.9476 19.5429 27.8863 19.8764 27.8673 20.2149C27.8309 20.4179 27.8248 20.6234 27.8187 20.8291V20.8291V20.8291V20.8291C27.8142 20.9795 27.8098 21.1299 27.7935 21.2795C27.7685 21.4269 27.7403 21.574 27.7121 21.7212C27.6312 22.1441 27.5501 22.5675 27.5436 22.9995C27.5302 23.4102 27.4583 23.8143 27.3864 24.2181L27.3864 24.2182C27.3494 24.4257 27.3125 24.6332 27.2835 24.8415C27.2829 25.032 27.2641 25.2209 27.2453 25.4098V25.4098V25.4098V25.4098L27.2453 25.4098C27.2263 25.6005 27.2074 25.7911 27.207 25.9833C27.1982 26.2928 27.1351 26.5956 27.0721 26.8985C27.0046 27.2225 26.9372 27.5466 26.9361 27.8788C26.9354 28.077 26.9151 28.2738 26.8948 28.4708C26.8781 28.6331 26.8614 28.7955 26.8556 28.9589C26.8347 29.075 26.8126 29.191 26.7905 29.3072C26.693 29.82 26.5952 30.3346 26.5969 30.8591C26.594 31.2503 26.5231 31.6337 26.4521 32.0171C26.4062 32.2656 26.3602 32.5141 26.3328 32.7648C26.3352 32.9687 26.3135 33.1721 26.2919 33.3753C26.2604 33.6708 26.2289 33.9659 26.2718 34.2621C26.3142 34.3474 26.4029 34.3482 26.4877 34.349H26.4877H26.4877H26.4877C26.5139 34.3492 26.5397 34.3494 26.5637 34.3521C27.1955 34.3484 27.8276 34.3487 28.4596 34.3491C28.8545 34.3493 29.2494 34.3495 29.6443 34.3488C29.8522 33.7102 29.9355 33.037 29.9829 32.37C29.9732 31.9224 30.0594 31.4856 30.1455 31.0493C30.1801 30.8743 30.2146 30.6994 30.2429 30.5239C30.2632 29.9239 30.3039 29.3232 30.4109 28.732C30.524 28.2086 30.6113 27.6749 30.5924 27.1379C30.5838 26.7838 30.6576 26.4395 30.7313 26.0952C30.8037 25.7574 30.876 25.4196 30.8707 25.0725C30.8742 24.9711 30.8868 24.8705 30.8994 24.7698C30.9134 24.6573 30.9275 24.5448 30.9289 24.4311C30.9309 24.0847 30.9987 23.7466 31.0665 23.4083L31.0665 23.4083L31.0666 23.4083L31.0666 23.4082L31.0666 23.4082C31.1161 23.1613 31.1656 22.9142 31.1896 22.6637C31.2174 22.0345 31.2519 21.4007 31.3969 20.7858C31.4544 20.5331 31.4746 20.2757 31.4948 20.0182L31.4948 20.0182L31.4949 20.0182L31.4949 20.0182C31.5054 19.8844 31.5159 19.7507 31.5316 19.6176C31.5265 19.2147 31.6002 18.8202 31.6738 18.4257C31.7475 18.0313 31.8211 17.6368 31.8161 17.2339C31.8116 16.7698 31.897 16.3165 31.9825 15.8631C32.0647 15.4272 32.1469 14.9911 32.1492 14.5454C32.1415 14.0979 32.2232 13.6595 32.3049 13.2215L32.3049 13.2214C32.3451 13.0059 32.3852 12.7904 32.4147 12.574C32.4113 12.336 32.435 12.1 32.4586 11.864C32.4773 11.6778 32.496 11.4916 32.5014 11.3043C32.5147 11.1295 32.5565 10.9589 32.5983 10.7885C32.652 10.5694 32.7057 10.3506 32.6984 10.1239C32.5491 10.0254 32.3731 10.0291 32.2007 10.0326C32.1502 10.0337 32.1001 10.0347 32.051 10.0332C31.6568 10.0391 31.2624 10.0368 30.868 10.0345C30.3159 10.0313 29.7639 10.028 29.2129 10.0474ZM37.7707 10.1693C37.4226 10.2932 37.0691 10.4287 36.7826 10.6691C36.396 10.9548 36.1772 11.3964 35.9754 11.8196C35.86 12.0753 35.8663 12.3572 35.8725 12.6333L35.8725 12.6336C35.8737 12.6894 35.875 12.7451 35.8752 12.8002C35.8701 13.1154 36.0165 13.3997 36.1573 13.6732L36.1813 13.7199C36.5124 14.3659 37.1632 14.8217 37.8682 14.9652C38.4953 15.0695 39.1021 14.7973 39.591 14.4269C39.9547 14.1431 40.2093 13.7442 40.3975 13.3284C40.4926 13.1343 40.4898 12.9194 40.4871 12.707V12.7069V12.7069V12.7068C40.4862 12.6392 40.4853 12.5719 40.4876 12.5056C40.4854 12.4456 40.4862 12.3849 40.4869 12.3242C40.4887 12.1797 40.4905 12.0345 40.4524 11.8948C40.214 11.2718 39.7854 10.6968 39.1745 10.4002L39.1169 10.3752C38.695 10.1919 38.2285 9.98927 37.7707 10.1693ZM21.7772 11.1973C22.3617 10.8099 23.0375 10.5986 23.7079 10.4138C24.6811 10.2695 25.6765 10.2688 26.6517 10.4043C26.8745 10.4551 27.1616 10.5546 27.2003 10.8147C27.1929 11.0805 27.1221 11.3353 27.0512 11.5904C26.9915 11.8052 26.9317 12.0203 26.9097 12.2422C26.8974 12.2934 26.8912 12.3499 26.8849 12.4073C26.8673 12.568 26.8489 12.736 26.6937 12.8158C26.274 13.0805 25.7938 13.0732 25.3136 13.0659C24.8416 13.0588 24.3697 13.0516 23.9551 13.3027C23.6199 13.4862 23.3003 13.7097 23.047 13.9982C22.6982 14.4126 22.4924 14.9212 22.3129 15.4264C22.2445 15.633 22.2018 15.8483 22.1984 16.0657C22.194 16.3907 22.1182 16.7052 22.0424 17.0195L22.0424 17.0195L22.0424 17.0195C22.0024 17.1853 21.9624 17.3511 21.933 17.5183C21.8998 17.6632 22.0393 17.7797 22.1666 17.8115C22.3134 17.824 22.4589 17.8058 22.6044 17.7877C22.7274 17.7723 22.8505 17.7569 22.9745 17.76C23.4471 17.7619 23.9197 17.7615 24.3925 17.7611H24.3925H24.3926C24.7794 17.7608 25.1663 17.7605 25.5533 17.7614C25.7192 17.7539 25.9718 17.842 25.919 18.0533C25.8899 18.2442 25.8461 18.4332 25.8024 18.6222C25.7251 18.9562 25.6478 19.2904 25.6508 19.6359C25.6603 19.8939 25.6163 20.1492 25.5377 20.395C24.9045 20.3999 24.271 20.3992 23.6376 20.3985H23.6376H23.6376C23.1215 20.3979 22.6054 20.3973 22.0894 20.3998C21.8524 20.3889 21.6499 20.5907 21.6594 20.8284C21.6114 21.1074 21.6036 21.3898 21.5958 21.672C21.5862 22.0193 21.5766 22.3663 21.4921 22.7063C21.3705 23.2414 21.3261 23.7872 21.2818 24.3328L21.2817 24.3329L21.2817 24.3329C21.2654 24.5345 21.249 24.7361 21.2287 24.937C21.1197 25.5289 21.0161 26.1235 20.9829 26.7255C20.9842 27.2686 20.8948 27.8077 20.7723 28.3359C20.7145 28.5555 20.7083 28.7808 20.7021 29.0064C20.6969 29.1961 20.6917 29.386 20.6558 29.5731C20.6477 29.9435 20.5798 30.3071 20.5118 30.6707C20.4374 31.069 20.363 31.4672 20.3673 31.8743C20.3778 32.3098 20.2963 32.7352 20.2147 33.1609C20.165 33.4203 20.1152 33.6798 20.0863 33.9418C20.0602 34.1792 19.9897 34.4057 19.9192 34.6323C19.8558 34.8362 19.7923 35.0401 19.7612 35.2521C19.7286 35.4801 19.6621 35.6998 19.5956 35.9195C19.5225 36.1612 19.4493 36.403 19.4212 36.656C19.277 37.2296 18.998 37.8147 18.4989 38.1614C18.1738 38.3476 17.8061 38.4871 17.4262 38.4743C17.1861 38.472 16.9461 38.4722 16.706 38.4724C16.5059 38.4726 16.3058 38.4728 16.1057 38.4716C16.0928 38.1045 16.0874 37.7375 16.1118 37.3711C16.1394 37.136 16.1847 36.9031 16.2299 36.6702L16.2299 36.6702C16.2988 36.316 16.3676 35.9618 16.3745 35.6002C16.379 35.4791 16.393 35.3587 16.407 35.2384C16.4245 35.0877 16.442 34.937 16.4409 34.7849C16.4413 34.5609 16.4931 34.3447 16.545 34.1284C16.5794 33.9851 16.6138 33.8417 16.6332 33.6959C16.6738 32.7844 16.7666 31.8729 16.9617 30.9804C16.9748 30.6604 16.9998 30.3417 17.0248 30.0231C17.0398 29.8319 17.0549 29.6407 17.0673 29.4492C17.0945 29.2344 17.1375 29.0213 17.1804 28.8083C17.256 28.4331 17.3316 28.058 17.3212 27.6736C17.3191 27.274 17.3924 26.8826 17.4656 26.4912C17.5104 26.2518 17.5551 26.0124 17.5826 25.7713C17.5833 25.5867 17.6025 25.4035 17.6217 25.2203C17.64 25.0461 17.6582 24.8719 17.6605 24.6966C17.6734 24.3846 17.7359 24.0792 17.7984 23.7739C17.8311 23.6141 17.8638 23.4542 17.8894 23.2934C17.93 23.0665 17.9309 22.8363 17.9318 22.606C17.9327 22.3527 17.9337 22.0994 17.9876 21.8503C18.0101 21.6849 18.0497 21.5221 18.0892 21.3594C18.1423 21.1406 18.1954 20.922 18.207 20.6971C18.2424 20.4442 17.9778 20.388 17.7722 20.3444L17.7722 20.3444L17.7722 20.3444C17.7377 20.337 17.7049 20.3301 17.6754 20.3226C17.5127 20.2746 17.3416 20.2681 17.171 20.2617C16.9325 20.2527 16.6951 20.2438 16.4835 20.1214C16.3122 20.0056 16.1212 19.8756 16.0556 19.6691C16.0203 19.4795 16.045 19.2907 16.0698 19.1015C16.0859 18.9779 16.1021 18.854 16.1016 18.7298C16.1063 18.6524 16.1057 18.5734 16.1051 18.4943C16.1036 18.2896 16.102 18.0832 16.1924 17.8962C16.2878 17.7736 16.4578 17.7567 16.6021 17.7573C17.2427 17.7621 17.8826 17.7634 18.5226 17.7621C18.536 17.6352 18.5403 17.5077 18.5446 17.3802V17.3802C18.5507 17.1994 18.5568 17.0187 18.589 16.8404C18.6099 16.628 18.6596 16.4213 18.7093 16.2148C18.7625 15.9939 18.8156 15.7731 18.8334 15.5456C18.8605 15.2192 18.9743 14.9131 19.1003 14.6144C19.2878 14.0388 19.5953 13.5133 19.9048 12.9966C20.389 12.2706 21.0526 11.6767 21.7772 11.1973ZM51.2609 17.4398C51.3724 17.4171 51.4839 17.3945 51.5937 17.3659C52.0076 17.2457 52.4425 17.2651 52.8696 17.2841L52.9432 17.2874L53.024 17.2907C53.0875 17.3043 53.1514 17.3175 53.2153 17.3307C53.5764 17.4051 53.9405 17.4802 54.2788 17.6287C55.2438 18.0208 55.9806 18.8558 56.3923 19.7977C56.4902 19.9953 56.5586 20.2039 56.6271 20.4128C56.6577 20.506 56.6882 20.5993 56.7215 20.6916C56.8996 21.1341 56.9346 21.6053 56.9697 22.0766C56.9883 22.3275 57.007 22.5783 57.0472 22.8248C57.0822 23.1541 57.0748 23.4866 57.0675 23.8177C57.066 23.8837 57.0646 23.9496 57.0635 24.0153C57.0187 24.3133 56.9984 24.6155 56.9781 24.9178V24.9178V24.9178C56.9413 25.4653 56.9045 26.0127 56.7221 26.5345C56.6734 26.6861 56.6393 26.8416 56.6052 26.997L56.6052 26.997L56.6052 26.9971C56.5598 27.2042 56.5144 27.4113 56.4343 27.6086C56.3817 27.7411 56.3422 27.878 56.3026 28.0149L56.3026 28.015L56.3026 28.015C56.2576 28.1707 56.2127 28.3263 56.1486 28.4754C55.5797 29.8427 54.8334 31.1537 53.8102 32.2345C52.9732 33.1122 51.9736 33.8673 50.8156 34.2621C50.3237 34.4913 49.7869 34.5296 49.2537 34.5677C49.0968 34.5789 48.9403 34.5901 48.7854 34.6061C48.6489 34.5895 48.5117 34.5773 48.3743 34.565C48.0571 34.5367 47.7396 34.5084 47.431 34.4266C46.8391 34.2384 46.2635 33.9763 45.7725 33.591C45.7302 33.554 45.6889 33.5156 45.6476 33.4772L45.6475 33.4771C45.5029 33.3428 45.3583 33.2083 45.1718 33.1325C45.1249 33.3059 45.1062 33.4836 45.0875 33.6613C45.0719 33.8097 45.0562 33.9582 45.0242 34.1043C44.8826 34.7212 44.819 35.3537 44.8075 35.9855C44.7822 36.2937 44.7189 36.5964 44.6555 36.899L44.6555 36.899L44.6555 36.8991C44.6271 37.0346 44.5988 37.1701 44.5738 37.3061C44.5534 37.5207 44.5401 37.7372 44.5268 37.9542L44.5268 37.9543L44.5268 37.9545C44.4893 38.5646 44.4517 39.1778 44.2549 39.7582C44.1594 39.9834 43.9443 39.9522 43.742 39.9228C43.6803 39.9139 43.6197 39.9051 43.5641 39.9038C43.1235 39.9005 42.6828 39.9013 42.2423 39.902H42.2417H42.2417H42.2416C41.7832 39.9028 41.325 39.9036 40.8668 39.8998C40.7906 39.5975 40.8253 39.2926 40.8599 38.9877L40.8599 38.9877C40.8772 38.8349 40.8946 38.6822 40.898 38.5298C40.9269 38.3081 40.9669 38.0878 41.007 37.8676C41.0703 37.5196 41.1335 37.1716 41.1526 36.8178C41.1601 36.2713 41.2217 35.7248 41.3524 35.1939C41.4166 34.9467 41.4264 34.6936 41.4363 34.4402C41.4442 34.239 41.4521 34.0376 41.4872 33.8388C41.4932 33.4944 41.5609 33.1572 41.6286 32.8204L41.6286 32.8203C41.7051 32.4399 41.7814 32.0598 41.7689 31.6697C41.7651 31.2263 41.8446 30.7912 41.924 30.3562C41.9597 30.1609 41.9954 29.9656 42.0235 29.7695C42.0306 29.6223 42.047 29.4758 42.0634 29.3294V29.3293L42.0634 29.3292C42.0847 29.1391 42.106 28.9491 42.1068 28.7578C42.093 28.413 42.1661 28.0791 42.2392 27.7449L42.2392 27.7448C42.3029 27.4535 42.3666 27.162 42.3729 26.863C42.3776 26.2137 42.4902 25.5735 42.6024 24.9358L42.6024 24.9358L42.6026 24.9346C42.6203 24.8338 42.638 24.733 42.6553 24.6323C42.7017 24.391 42.7065 24.1469 42.7114 23.9027C42.7146 23.7404 42.7178 23.5781 42.7332 23.4167C42.7613 23.2484 42.7953 23.0808 42.8294 22.9133L42.8294 22.9131L42.8294 22.9131C42.899 22.5711 42.9685 22.2289 42.9872 21.8795C42.9921 21.7586 43.0056 21.6383 43.0192 21.5181C43.0374 21.3568 43.0556 21.1955 43.0528 21.033C43.045 20.7858 43.1007 20.5472 43.1564 20.3085C43.2118 20.0711 43.2672 19.8337 43.2601 19.5878C43.27 19.4721 43.2791 19.3562 43.2882 19.2402L43.2882 19.2396C43.3327 18.6706 43.3773 18.0996 43.5303 17.5474C43.9098 17.4709 44.2963 17.4789 44.6828 17.487H44.6828C44.8984 17.4915 45.1139 17.496 45.3282 17.4858C45.868 17.4458 46.4341 17.8481 46.5018 18.3993C46.5316 18.83 46.5161 19.2634 46.451 19.6901C46.4531 19.9025 46.4321 20.1133 46.4111 20.3241V20.3241V20.3241C46.3838 20.5978 46.3566 20.8712 46.3799 21.1474C46.4653 21.1433 46.5519 21.1413 46.6386 21.1406C46.8262 20.6855 47.1519 20.3077 47.4824 19.9501C47.5858 19.8458 47.6882 19.7405 47.7906 19.635L47.7907 19.6349L47.791 19.6347L47.791 19.6346L47.791 19.6346C48.0783 19.339 48.3657 19.0431 48.6756 18.7711C49.2533 18.274 49.9285 17.9016 50.6314 17.6117C50.8331 17.5267 51.047 17.4832 51.2609 17.4398ZM52.0813 20.4363C51.6269 20.1668 51.0662 20.1438 50.5623 20.2664C49.7788 20.5115 49.1124 21.0282 48.5558 21.6201C47.7621 22.5228 47.1262 23.5582 46.6298 24.6506C46.0779 25.732 45.761 26.9375 45.7603 28.1537C45.7447 28.5357 45.6694 28.9102 45.594 29.2847L45.594 29.2848L45.594 29.2848C45.5252 29.6267 45.4565 29.9686 45.4332 30.316C45.5857 30.782 46.0279 31.0589 46.4247 31.3074L46.4659 31.3332L46.5498 31.3682C47.0013 31.557 47.4644 31.7506 47.9605 31.7652C48.0118 31.766 48.0633 31.7671 48.1151 31.7682L48.1152 31.7682C48.5638 31.7776 49.027 31.7873 49.4422 31.5973C50.3971 31.2418 51.1975 30.549 51.7488 29.6991C52.2534 29.0236 52.5713 28.2376 52.8848 27.4628L52.8872 27.4569C53.1044 26.8287 53.2181 26.1772 53.3318 25.5252L53.3619 25.3535C53.5022 24.827 53.494 24.2851 53.4857 23.7445V23.7443V23.7441C53.483 23.5623 53.4802 23.3807 53.4831 23.2C53.4557 22.8728 53.3749 22.5536 53.2943 22.2349L53.2943 22.2349L53.2942 22.2349C53.2554 22.0813 53.2166 21.9279 53.1838 21.7738C52.9711 21.2314 52.6319 20.6842 52.0813 20.4363ZM35.833 18.2304C35.8619 18.0014 35.8908 17.7723 35.9402 17.5467C36.2221 17.5464 36.504 17.5456 36.786 17.5449C37.6833 17.5425 38.5809 17.5401 39.4786 17.5515C39.4774 17.7974 39.4322 18.0379 39.387 18.2786C39.3559 18.4441 39.3248 18.6097 39.3079 18.7772C39.2661 18.9862 39.2631 19.1982 39.2602 19.4101C39.2574 19.6163 39.2546 19.8225 39.2158 20.026C39.1933 20.2232 39.1517 20.4178 39.1102 20.6123C39.047 20.9079 38.9839 21.2034 38.9876 21.5077C38.9857 21.6262 38.9711 21.7436 38.9565 21.8609C38.9402 21.9923 38.9239 22.1236 38.9253 22.2567C38.928 22.5961 38.858 22.9269 38.7879 23.2577C38.7159 23.5982 38.6438 23.9386 38.651 24.2883C38.6553 24.445 38.6373 24.6002 38.6192 24.7555C38.6058 24.8706 38.5924 24.9857 38.5881 25.1016C38.5838 25.4207 38.518 25.7324 38.4522 26.0443C38.381 26.3817 38.3098 26.7192 38.3165 27.0661C38.3205 27.5573 38.2345 28.0397 38.1486 28.5216C38.1179 28.6942 38.0871 28.8667 38.0605 29.0395C38.0508 29.2925 38.0279 29.5442 38.005 29.7961C37.9897 29.9642 37.9744 30.1325 37.963 30.3011C37.9343 30.5131 37.8968 30.7243 37.8594 30.9355C37.7804 31.381 37.7013 31.8267 37.7036 32.2806C37.705 32.6439 37.6384 32.9997 37.5717 33.3556C37.5384 33.5337 37.505 33.7119 37.4802 33.891C37.4734 33.9181 37.4674 33.9463 37.4613 33.975C37.4317 34.1134 37.4 34.2615 37.2777 34.344C36.7711 34.3523 36.2644 34.3508 35.7576 34.3493C35.3105 34.348 34.8634 34.3467 34.4165 34.3521C34.38 34.3489 34.3413 34.3495 34.3022 34.3501C34.1838 34.3518 34.0613 34.3536 33.9844 34.2512C33.9511 33.9922 33.9803 33.7354 34.0096 33.4783C34.032 33.2816 34.0544 33.0848 34.0488 32.8867C34.0377 32.4895 34.1123 32.1016 34.1868 31.7135C34.2539 31.3645 34.3209 31.0153 34.3258 30.6594C34.3324 30.5647 34.3429 30.4702 34.3534 30.3759C34.3705 30.2212 34.3876 30.0667 34.3881 29.9111C34.3924 29.6707 34.4449 29.4372 34.4974 29.2036C34.5261 29.0759 34.5548 28.9482 34.5756 28.8194L34.5779 28.7875C34.6408 27.8858 34.7039 26.9805 34.9014 26.0957C34.9129 25.947 34.9254 25.7983 34.9379 25.6496C34.968 25.2905 34.9982 24.9314 35.0145 24.5713C35.0417 24.4048 35.0746 24.2392 35.1076 24.0736C35.1698 23.761 35.2321 23.4483 35.2556 23.1296C35.2779 22.4964 35.3192 21.8598 35.4696 21.2422C35.5204 21.0218 35.5355 20.7968 35.5505 20.5716C35.5613 20.41 35.5721 20.2484 35.5962 20.0883C35.5949 19.6376 35.6758 19.1944 35.7566 18.7523C35.7632 18.7161 35.7698 18.68 35.7763 18.6438C35.7982 18.5065 35.8156 18.3685 35.833 18.2304Z" fill="white"/>
</svg>
