<svg width="70" height="50" viewBox="0 0 70 50" fill="none" xmlns="http://www.w3.org/2000/svg">
<rect width="70" height="50" rx="4" fill="white"/>
<path fill-rule="evenodd" clip-rule="evenodd" d="M33.9174 29.1182V24.6071V24.6062H36.3578C37.3639 24.6068 38.2095 24.2907 38.8945 23.6578C39.5868 23.0571 39.9738 22.1935 39.9541 21.2933C39.9678 20.3982 39.5815 19.5409 38.8945 18.9422C38.2155 18.3059 37.3023 17.9587 36.3578 17.9778H32.4404V29.1182H33.9174ZM33.9174 23.2382V19.3493V19.3485H36.3945C36.9466 19.3334 37.4788 19.5487 37.856 19.9396C38.2355 20.297 38.4496 20.7881 38.4496 21.3009C38.4496 21.8137 38.2355 22.3047 37.856 22.6622C37.4741 23.0449 36.9436 23.254 36.3945 23.2382H33.9174Z" fill="#5F6368"/>
<path fill-rule="evenodd" clip-rule="evenodd" d="M45.9431 22.0951C45.3113 21.5298 44.4496 21.2471 43.3578 21.2471C41.9554 21.2471 40.8963 21.7449 40.1807 22.7404L41.4817 23.5342C41.9624 22.8599 42.6153 22.5227 43.4404 22.5227C43.9664 22.5167 44.4755 22.703 44.8661 23.0444C45.2555 23.3564 45.4795 23.8215 45.4762 24.3111V24.6382C44.9086 24.3271 44.1863 24.1716 43.3092 24.1716C42.2817 24.1727 41.4603 24.4062 40.845 24.872C40.2297 25.3378 39.922 25.965 39.922 26.7538C39.9086 27.472 40.2302 28.1578 40.7973 28.6204C41.3807 29.1182 42.1058 29.3671 42.9725 29.3671C43.9878 29.3671 44.8012 28.9316 45.4129 28.0604H45.4771V29.1182H46.8899V24.4204C46.8905 23.4356 46.5749 22.6604 45.9431 22.0951ZM41.9367 27.7182C41.6273 27.5021 41.4448 27.1544 41.4468 26.7849C41.4468 26.3698 41.6477 26.024 42.0523 25.7396C42.4529 25.4593 42.9532 25.3191 43.5532 25.3191C44.3771 25.3191 45.0193 25.4969 45.4798 25.8524C45.4798 26.4533 45.2352 26.9769 44.7459 27.4231C44.3052 27.8502 43.7077 28.0906 43.0844 28.0916C42.6689 28.0991 42.2634 27.9672 41.9367 27.7182Z" fill="#5F6368"/>
<path fill-rule="evenodd" clip-rule="evenodd" d="M55 21.496L50.0679 32.4782H48.5431L50.3734 28.6356L47.1302 21.496H48.7358L51.0798 26.9716H51.1119L53.3917 21.496H55Z" fill="#5F6368"/>
<path fill-rule="evenodd" clip-rule="evenodd" d="M27.9486 23.6347C27.9492 23.1985 27.9111 22.7632 27.8349 22.3333H21.6055V24.7982H25.1734C25.0259 25.5937 24.5493 26.2963 23.8542 26.7431V28.3431H25.9835C27.2303 27.2293 27.9486 25.5822 27.9486 23.6347Z" fill="#4285F4"/>
<path fill-rule="evenodd" clip-rule="evenodd" d="M21.6055 29.8889C23.3881 29.8889 24.889 29.3218 25.9835 28.344L23.8541 26.744C23.2615 27.1333 22.4982 27.3556 21.6055 27.3556C19.8826 27.3556 18.4202 26.2302 17.8973 24.7138H15.7037V26.3627C16.8249 28.5244 19.1085 29.8888 21.6055 29.8889Z" fill="#34A853"/>
<path fill-rule="evenodd" clip-rule="evenodd" d="M17.8973 24.7138C17.6208 23.9192 17.6208 23.0586 17.8973 22.264V20.6151H15.7037C14.7658 22.4232 14.7658 24.5546 15.7037 26.3627L17.8973 24.7138Z" fill="#FBBC04"/>
<path fill-rule="evenodd" clip-rule="evenodd" d="M21.6055 19.6222C22.5475 19.6073 23.4577 19.9522 24.1395 20.5822L26.0248 18.7556C24.8293 17.6676 23.2455 17.0703 21.6055 17.0889C19.1085 17.089 16.8249 18.4534 15.7037 20.6151L17.8973 22.264C18.4202 20.7476 19.8826 19.6222 21.6055 19.6222Z" fill="#EA4335"/>
</svg>
