<svg width="70" height="50" viewBox="0 0 70 50" fill="none" xmlns="http://www.w3.org/2000/svg">
<rect width="70" height="50" rx="4" fill="white"/>
<path fill-rule="evenodd" clip-rule="evenodd" d="M12.8832 25.7219C12.8756 25.7219 12.8832 29.3033 12.8832 29.3033C12.8832 29.7542 12.4819 30.1484 11.9567 30.1484H11.4525V30.3317H15.7153V30.1484H15.2116C14.6925 30.1484 14.2847 29.7479 14.2847 29.3033V25.6656V21.3238C14.2847 20.887 14.6859 20.4796 15.2116 20.4796H15.7153V20.2961H11.4525V20.4796H11.9567C12.4884 20.4796 12.8832 20.887 12.8832 21.3238V25.2136H7.83168V21.3238C7.83168 20.887 8.24069 20.4796 8.7601 20.4796H9.2635V20.2961H5.00006V20.4796H5.50346C6.02822 20.4796 6.43066 20.887 6.43066 21.3238V25.6656V29.3033C6.43066 29.7479 6.02822 30.1484 5.50346 30.1484H5.00006V30.3317H9.2635V30.1484H8.7601C8.24069 30.1484 7.83168 29.7479 7.83168 29.3033C7.83168 29.3033 7.83885 25.7219 7.83168 25.7219H12.8832Z" fill="#231F20"/>
<path fill-rule="evenodd" clip-rule="evenodd" d="M23.0215 27.7059C23.0583 28.2954 22.6784 29.1914 22.153 29.6476C21.647 30.0878 20.9271 30.4717 19.9633 30.4717C18.8686 30.4717 17.9265 29.9081 17.5834 29.782C17.3756 29.7045 17.103 29.7133 16.9406 29.8096C16.7518 29.923 16.6342 30.1044 16.5898 30.4439H16.4298V26.9659H16.5898C16.7364 28.0355 17.254 28.6649 17.5768 29.021C18.102 29.606 19.0936 29.9368 20.0505 29.7889C20.8103 29.6711 21.6414 28.8757 21.5514 27.8927C21.5186 27.5371 21.437 27.019 20.6709 26.5369C20.1908 26.2336 19.5067 25.8032 18.8602 25.3894C18.0445 24.8685 17.3028 24.3032 17.0949 24.0732C16.8212 23.7746 16.4814 23.3424 16.4814 22.6513C16.4814 22.0606 16.7149 21.385 17.2111 20.935C17.7073 20.4848 18.3796 20.1469 19.3424 20.1469C20.3061 20.1469 21.0367 20.6395 21.2839 20.7528C21.5314 20.864 21.807 20.8387 21.9635 20.7528C22.1161 20.668 22.2183 20.5418 22.2621 20.2028H22.4229V23.4969H22.2621C22.1161 22.4264 21.6342 21.6254 21.2992 21.3297C20.964 21.0335 20.3061 20.6254 19.328 20.8087C18.3889 20.9839 17.9324 21.3925 17.8461 22.1171C17.7805 22.6691 18.0909 23.0086 18.269 23.2144C18.6351 23.6376 20.9515 24.9033 21.9999 25.7774C22.5405 26.227 22.9632 26.7623 23.0215 27.7059Z" fill="#231F20"/>
<path fill-rule="evenodd" clip-rule="evenodd" d="M29.772 25.2073C31.6283 25.821 32.1573 27.084 31.8132 28.3859C31.4085 29.9145 29.6195 30.2263 29.0388 30.2995C28.777 30.3322 28.1095 30.33 27.4485 30.33C26.2691 30.3305 24.7766 30.3264 23.5795 30.3264V30.1444H24.1925C24.5826 30.1444 25.0285 29.8274 25.0285 29.3496V21.3371C25.0285 20.8575 24.5826 20.5348 24.1962 20.5348H23.5836V20.3516H27.2835C28.1738 20.3516 28.6582 20.4335 28.9688 20.4929C29.4954 20.5902 31.0285 21.0264 31.3942 22.4064C31.6754 23.4744 31.1223 24.8199 29.772 25.2073ZM26.415 24.9254C26.9261 25.0517 28.4303 25.0865 29.0138 24.7289C29.9282 24.1694 30.246 23.2713 30.0766 22.4761C29.9761 21.9988 29.7138 21.5594 29.2613 21.2524C28.371 20.6468 27.087 20.7459 26.415 20.9425V24.9254ZM26.415 29.7639C27.1358 29.9796 28.5086 30.1444 29.4663 29.4834C30.6132 28.692 30.8548 26.756 29.2351 25.7481C28.5828 25.3411 26.955 25.3704 26.415 25.4914V29.7639Z" fill="#231F20"/>
<path fill-rule="evenodd" clip-rule="evenodd" d="M41.5705 20.4715L41.7203 23.8708L41.5089 23.8777C41.4064 23.0184 41.0708 22.4126 40.6479 22.0189C40.5259 21.906 40.2948 21.6761 39.9603 21.4738C39.4049 21.1356 38.578 20.8368 37.5962 21.0059C36.1211 21.2588 35.3627 22.1983 34.9833 23.1026C34.516 24.2149 34.2205 26.1168 35.0122 27.7202C35.6558 29.0223 36.8914 29.5646 37.8443 29.7044C38.6572 29.8234 40.4576 29.7878 41.8311 28.0022L42.0489 28.142C40.9828 29.5917 39.5657 30.522 37.947 30.5073C35.8736 30.4895 34.5714 29.3883 33.9757 28.7336C33.3479 28.0431 32.8664 26.7347 32.8605 25.5947C32.8551 24.5814 33.0866 23.4528 33.4648 22.7937C34.1136 21.6606 35.4723 20.5344 37.2596 20.3659C38.5995 20.2399 39.4797 20.493 40.2314 20.9071C40.6076 21.1147 40.8188 21.1384 41.0235 21.0559C41.228 20.9702 41.3919 20.8024 41.3919 20.4715H41.5705Z" fill="#231F20"/>
<path fill-rule="evenodd" clip-rule="evenodd" d="M50.3553 30.3299H60.7546V20.3062H50.3553V30.3299Z" fill="white"/>
<path fill-rule="evenodd" clip-rule="evenodd" d="M45.1534 25.3182L50.3536 30.3317V20.3044L45.1534 25.3182Z" fill="#EE3624"/>
<path fill-rule="evenodd" clip-rule="evenodd" d="M50.3551 30.3316H60.7547L55.5547 25.3181L50.3551 30.3316Z" fill="#EE3624"/>
<path fill-rule="evenodd" clip-rule="evenodd" d="M55.5547 25.3182L60.7552 20.3044H50.3546L55.5547 25.3182Z" fill="#EE3624"/>
<path fill-rule="evenodd" clip-rule="evenodd" d="M60.7563 20.3044V30.3317L65.956 25.3182L60.7563 20.3044Z" fill="#EE3624"/>
</svg>
