<svg width="70" height="50" viewBox="0 0 70 50" fill="none" xmlns="http://www.w3.org/2000/svg">
<rect width="70" height="50" rx="4" fill="white"/>
<g clip-path="url(#clip0_9_2923)">
<path d="M18.5631 17.032C17.8708 16.892 17.1507 17.2202 16.7862 17.8413C16.7001 17.9884 16.6381 18.1467 16.5989 18.3094C16.4381 17.6759 15.9325 17.1622 15.2903 17.032C14.598 16.892 13.8772 17.2202 13.5127 17.8413C13.4267 17.9884 13.3646 18.1467 13.3254 18.3094C13.164 17.6766 12.6591 17.1622 12.0168 17.032C11.3245 16.892 10.6037 17.2202 10.2393 17.8413C9.8735 18.465 9.93171 19.2828 10.3823 19.8447C10.8322 20.4059 11.5947 20.624 12.261 20.3773C12.792 20.1807 13.1881 19.7158 13.326 19.1663C13.3855 19.4111 13.495 19.6442 13.6557 19.8447C14.1056 20.4059 14.8682 20.624 15.5345 20.3773C16.0654 20.1807 16.4615 19.7158 16.5995 19.1663C16.659 19.4111 16.7685 19.6442 16.9292 19.8447C17.3791 20.4059 18.1416 20.624 18.808 20.3773C19.4718 20.1312 19.9268 19.4651 19.9268 18.7392C19.9261 17.9194 19.3458 17.1909 18.5631 17.032Z" fill="#FDAF27"/>
<path d="M13.1619 25.4839C13.334 26.2411 13.7725 26.9475 14.5401 27.1637C15.2691 27.3688 16.0816 27.0361 16.4569 26.357C16.6822 25.9494 16.6537 25.4885 16.6518 25.0373C16.6505 24.7332 16.6486 24.4298 16.6492 24.1257C16.6492 23.7911 16.6492 23.4564 16.6511 23.1224C16.653 22.694 16.641 22.278 16.8486 21.8893C17.1352 21.3515 17.7054 21.0207 18.3008 21.0448C18.902 21.0696 19.45 21.4576 19.6892 22.026C19.848 22.4036 19.8208 22.8132 19.8221 23.2149C19.8234 23.5463 19.8234 23.8783 19.8234 24.2097C19.8234 24.9259 19.867 25.6727 19.7316 26.3778C19.4184 28.0101 18.3192 29.4308 16.8296 30.0851C15.34 30.7395 13.5757 30.5643 12.2329 29.6333C11.571 29.1742 11.0256 28.5395 10.6661 27.8057C10.3111 27.0797 10.096 26.1728 10.232 25.3602C10.3339 24.7547 10.799 24.2599 11.3844 24.1362C11.9925 24.0079 12.6291 24.297 12.9461 24.8458C13.0613 25.0444 13.1113 25.2606 13.1619 25.4839Z" fill="#FDAF27"/>
<path d="M60 25.3713C60 27.5889 58.2337 29.3592 56.0037 29.3592C53.7892 29.3592 52.0529 27.6038 52.0529 25.3713C52.0529 23.1387 53.7892 21.3984 56.0183 21.3984C58.2346 21.3984 60 23.1537 60 25.3713ZM54.1037 25.3862C54.1037 26.5875 54.9117 27.4495 56.0192 27.4495C57.1121 27.4495 57.9346 26.5719 57.9346 25.3862C57.9346 24.185 57.1112 23.2924 56.0192 23.2924C54.9117 23.2924 54.1037 24.17 54.1037 25.3862Z" fill="black"/>
<path d="M28.0344 26.8707C28.4103 27.0927 28.7716 27.3199 29.2221 27.2926C29.6537 27.2665 30.0479 27.0341 30.2935 26.6688C30.5219 26.3296 30.5168 25.9422 30.5168 25.5496C30.5168 24.8868 30.5168 20.3481 30.5168 20.018C30.5168 19.7895 30.5048 19.5635 30.5902 19.3454C30.844 18.6989 31.666 18.4906 32.1824 18.9431C32.4589 19.1853 32.5374 19.518 32.5374 19.8728C32.5374 20.5871 32.5576 25.5314 32.5323 26.0216C32.4867 26.9065 32.0957 27.7633 31.4812 28.3812C30.8446 29.0218 29.972 29.3741 29.0842 29.3734C28.2318 29.3728 27.3313 29.0362 26.7732 28.3512C26.5492 28.0758 26.4188 27.7503 26.5068 27.3896C26.5916 27.0419 26.8643 26.7639 27.2042 26.6819C27.513 26.6089 27.7724 26.7157 28.0344 26.8707Z" fill="black"/>
<path d="M42.0344 27.5086L42.0357 27.508C41.7256 27.3146 41.5339 26.9708 41.5282 26.5978V22.438C41.5282 21.8637 41.0758 21.3989 40.5176 21.3989C40.0063 21.3989 39.5855 21.7895 39.5178 22.2967C39.0078 21.7309 38.2358 21.3989 37.3093 21.3989C35.2293 21.3989 33.7176 23.0773 33.7176 25.3867C33.7176 27.6968 35.2293 29.3746 37.3093 29.3746C37.3188 29.3746 37.3283 29.374 37.3378 29.374C37.3473 29.374 37.3568 29.3746 37.3663 29.3746C38.3642 29.3746 39.2299 28.9879 39.8614 28.331C40.1841 28.8473 40.7049 29.2255 41.3276 29.3414C41.3883 29.3525 41.4491 29.3584 41.5086 29.3584C41.5124 29.3584 41.5162 29.3577 41.5193 29.3571C41.5238 29.3571 41.5288 29.3577 41.5333 29.3577C42.0686 29.3577 42.502 28.9117 42.502 28.3609C42.5027 27.9989 42.3148 27.6831 42.0344 27.5086ZM37.684 27.4806C36.5614 27.4806 35.7685 26.603 35.7685 25.3867C35.7685 24.1699 36.5766 23.2772 37.684 23.2772C38.7913 23.2772 39.5545 24.1393 39.5545 25.3867C39.5545 26.6336 38.8059 27.4806 37.684 27.4806Z" fill="black"/>
<path d="M50.9512 22.4453C50.9512 21.845 50.5323 21.3984 49.9634 21.3984C49.4395 21.3984 49.0205 21.7988 48.9756 22.3528C48.4668 21.7526 47.6733 21.3984 46.7159 21.3984C44.6359 21.3984 43.1241 23.0769 43.1241 25.3863C43.1241 27.6956 44.6359 29.3742 46.7159 29.3742C47.6499 29.3742 48.4219 29.0415 48.9307 28.4515V28.699C48.9237 29.9419 48.1739 30.7753 47.0601 30.7753C46.583 30.7753 46.1539 30.619 45.8198 30.3241C45.6952 30.2141 45.5851 30.0851 45.492 29.9412C45.1832 29.4634 44.5562 29.3338 44.0917 29.6515C43.6272 29.9692 43.5013 30.6145 43.8101 31.0924C44.0056 31.3945 44.2391 31.6666 44.5042 31.901C45.2098 32.5247 46.0938 32.8542 47.0607 32.8542C49.2901 32.8542 50.9139 31.1379 50.9499 28.7622L50.9518 28.3122C50.9518 28.3122 50.9518 28.3122 50.9518 28.3116V22.4453H50.9512ZM47.0905 27.4808C45.9679 27.4808 45.175 26.6031 45.175 25.3869C45.175 24.1707 45.9831 23.2774 47.0905 23.2774C48.1979 23.2774 48.961 24.1394 48.961 25.3869C48.961 26.6337 48.2124 27.4808 47.0905 27.4808Z" fill="black"/>
</g>
<defs>
<clipPath id="clip0_9_2923">
<rect width="50" height="16" fill="white" transform="translate(10 17)"/>
</clipPath>
</defs>
</svg>
