<svg width="70" height="50" viewBox="0 0 70 50" fill="none" xmlns="http://www.w3.org/2000/svg">
<rect width="70" height="50" rx="4" fill="white"/>
<path fill-rule="evenodd" clip-rule="evenodd" d="M44.7531 14C44.5213 14.0006 44.2901 14.0085 44.0626 14.0345C43.1726 14.1358 42.3352 14.5806 41.7338 15.267C41.2877 15.7762 40.9779 16.4068 40.8466 17.081C40.7818 17.4139 40.7735 17.7476 40.7735 18.0849V20.3238V21.4091V21.728C40.7735 21.8134 40.7538 21.8201 40.8448 21.8201H42.2689H43.6879H45.1155C45.5816 21.8201 46.0514 21.8019 46.5161 21.8456C46.9739 21.8887 47.4399 22.0238 47.8102 22.3152C48.3308 22.7251 48.5426 23.4323 48.3646 24.0827C48.1938 24.7072 47.6817 25.1259 47.0964 25.2997C47.0316 25.3189 46.9661 25.3355 46.9 25.3495C46.8617 25.3578 46.81 25.3562 46.7752 25.373C46.7581 25.3812 46.7144 25.3915 46.7464 25.423C46.7544 25.4309 46.7883 25.4308 46.8133 25.4306C46.8235 25.4305 46.8323 25.4305 46.8373 25.4309C47.021 25.4492 47.2037 25.4822 47.3819 25.5326C47.927 25.6865 48.4561 26.0175 48.7086 26.5609C49.0075 27.2039 48.8551 28.0003 48.3723 28.4991C47.992 28.8921 47.4611 29.0926 46.9357 29.1591C46.6722 29.1923 46.4068 29.1855 46.142 29.1855H44.7143H43.2867H41.8677H41.1539H40.9754C40.9347 29.1855 40.8197 29.1646 40.7863 29.1855C40.7668 29.1978 40.7735 29.2156 40.7735 29.2481V30.6144V33.0255V35.4619V36.904C40.7735 36.9185 40.764 36.9818 40.7735 36.9934C40.7849 37.0072 40.8806 36.9951 40.9041 36.9951H41.0825H41.7963H43.2154H44.643H46.066C46.9138 36.9951 47.721 36.7673 48.408 36.2349C49.3398 35.5129 49.8902 34.3651 49.8948 33.1604C49.8951 33.1138 49.8952 33.0671 49.8952 33.0205V32.9523C49.8951 32.8492 49.8948 32.746 49.8948 32.6428V31.3729C49.8948 30.7581 49.8948 30.1434 49.8948 29.5287C49.8948 28.7735 49.8948 28.0184 49.8948 27.2632C49.8948 26.43 49.8948 25.5966 49.8948 24.7633C49.8948 23.901 49.8948 23.0387 49.8948 22.1764C49.8948 21.3448 49.8948 20.5134 49.8948 19.6818C49.8948 18.9403 49.8948 18.199 49.8948 17.4575C49.8948 16.856 49.8948 16.2544 49.8948 15.6529V14.4513C49.8948 14.3046 49.8948 14.1579 49.8948 14.0111H49.8802C49.4267 14.0119 48.973 14.0111 48.5193 14.0111H47.0964H45.6687C45.3867 14.0111 45.1001 14.0008 44.8142 14H44.7531ZM42.5585 22.9839C42.5469 23.0104 42.5585 23.0689 42.5585 23.0974V24.1171V24.5936C42.5585 24.6334 42.54 24.7702 42.568 24.7905C42.592 24.8077 42.6957 24.7905 42.7266 24.7905H42.8979H43.2276H43.8824C44.0974 24.7905 44.3129 24.7944 44.5279 24.7905C44.7942 24.7856 45.0521 24.706 45.2414 24.5106C45.4556 24.2897 45.5322 23.9646 45.467 23.6664C45.4374 23.5345 45.3801 23.4108 45.2956 23.305C45.1335 23.1024 44.892 22.9901 44.6363 22.9693C44.5148 22.9595 44.3921 22.964 44.2703 22.964H43.6155H42.948H42.6229C42.6054 22.964 42.5937 22.9624 42.5851 22.9624C42.5721 22.9624 42.5664 22.966 42.5585 22.9839ZM43.9652 25.9868H42.5581C42.5581 26.0056 42.5581 26.0244 42.5581 26.0432V27.0631V27.6653V27.8851C42.5581 27.9165 42.5456 27.9828 42.5581 28.0116C42.577 28.0552 42.7519 28.0306 42.8079 28.0306H43.164H43.8677H44.5752C44.8051 28.0306 45.0256 28.0159 45.2294 27.8897C45.4771 27.7364 45.6458 27.4687 45.6881 27.1704C45.7367 26.8294 45.6265 26.4765 45.3807 26.245C45.1818 26.0577 44.9351 25.9889 44.6728 25.9868C44.5941 25.9861 44.5155 25.9859 44.4369 25.9859C44.2796 25.9859 44.1224 25.9868 43.9652 25.9868Z" fill="url(#paint0_linear_0_141)"/>
<mask id="mask0_0_141" style="mask-type:luminance" maskUnits="userSpaceOnUse" x="40" y="14" width="10" height="23">
<path fill-rule="evenodd" clip-rule="evenodd" d="M44.7531 14C44.5213 14.0006 44.2901 14.0085 44.0626 14.0345C43.1726 14.1358 42.3352 14.5806 41.7338 15.267C41.2877 15.7762 40.9779 16.4068 40.8466 17.081C40.7818 17.4139 40.7735 17.7476 40.7735 18.0849V20.3238V21.4091V21.728C40.7735 21.8134 40.7538 21.8201 40.8448 21.8201H42.2689H43.6879H45.1155C45.5816 21.8201 46.0514 21.8019 46.5161 21.8456C46.9739 21.8887 47.4399 22.0238 47.8102 22.3152C48.3308 22.7251 48.5426 23.4323 48.3646 24.0827C48.1938 24.7072 47.6817 25.1259 47.0964 25.2997C47.0316 25.3189 46.9661 25.3355 46.9 25.3495C46.8617 25.3578 46.81 25.3562 46.7752 25.373C46.7581 25.3812 46.7144 25.3915 46.7464 25.423C46.7544 25.4309 46.7883 25.4308 46.8133 25.4306C46.8235 25.4305 46.8323 25.4305 46.8373 25.4309C47.021 25.4492 47.2037 25.4822 47.3819 25.5326C47.927 25.6865 48.4561 26.0175 48.7086 26.5609C49.0075 27.2039 48.8551 28.0003 48.3723 28.4991C47.992 28.8921 47.4611 29.0926 46.9357 29.1591C46.6722 29.1923 46.4068 29.1855 46.142 29.1855H44.7143H43.2867H41.8677H41.1539H40.9754C40.9347 29.1855 40.8197 29.1646 40.7863 29.1855C40.7668 29.1978 40.7735 29.2156 40.7735 29.2481V30.6144V33.0255V35.4619V36.904C40.7735 36.9185 40.764 36.9818 40.7735 36.9934C40.7849 37.0072 40.8806 36.9951 40.9041 36.9951H41.0825H41.7963H43.2154H44.643H46.066C46.9138 36.9951 47.721 36.7673 48.408 36.2349C49.3398 35.5129 49.8902 34.3651 49.8948 33.1604C49.8951 33.1138 49.8952 33.0671 49.8952 33.0205V32.9523C49.8951 32.8492 49.8948 32.746 49.8948 32.6428V31.3729C49.8948 30.7581 49.8948 30.1434 49.8948 29.5287C49.8948 28.7735 49.8948 28.0184 49.8948 27.2632C49.8948 26.43 49.8948 25.5966 49.8948 24.7633C49.8948 23.901 49.8948 23.0387 49.8948 22.1764C49.8948 21.3448 49.8948 20.5134 49.8948 19.6818C49.8948 18.9403 49.8948 18.199 49.8948 17.4575C49.8948 16.856 49.8948 16.2544 49.8948 15.6529V14.4513C49.8948 14.3046 49.8948 14.1579 49.8948 14.0111H49.8802C49.4267 14.0119 48.973 14.0111 48.5193 14.0111H47.0964H45.6687C45.3867 14.0111 45.1001 14.0008 44.8142 14H44.7531ZM42.5585 22.9839C42.5469 23.0104 42.5585 23.0689 42.5585 23.0974V24.1171V24.5936C42.5585 24.6334 42.54 24.7702 42.568 24.7905C42.592 24.8077 42.6957 24.7905 42.7266 24.7905H42.8979H43.2276H43.8824C44.0974 24.7905 44.3129 24.7944 44.5279 24.7905C44.7942 24.7856 45.0521 24.706 45.2414 24.5106C45.4556 24.2897 45.5322 23.9646 45.467 23.6664C45.4374 23.5345 45.3801 23.4108 45.2956 23.305C45.1335 23.1024 44.892 22.9901 44.6363 22.9693C44.5148 22.9595 44.3921 22.964 44.2703 22.964H43.6155H42.948H42.6229C42.6054 22.964 42.5937 22.9624 42.5851 22.9624C42.5721 22.9624 42.5664 22.966 42.5585 22.9839ZM43.9652 25.9868H42.5581C42.5581 26.0056 42.5581 26.0244 42.5581 26.0432V27.0631V27.6653V27.8851C42.5581 27.9165 42.5456 27.9828 42.5581 28.0116C42.577 28.0552 42.7519 28.0306 42.8079 28.0306H43.164H43.8677H44.5752C44.8051 28.0306 45.0256 28.0159 45.2294 27.8897C45.4771 27.7364 45.6458 27.4687 45.6881 27.1704C45.7367 26.8294 45.6265 26.4765 45.3807 26.245C45.1818 26.0577 44.9351 25.9889 44.6728 25.9868C44.5941 25.9861 44.5155 25.9859 44.4369 25.9859C44.2796 25.9859 44.1224 25.9868 43.9652 25.9868Z" fill="white"/>
</mask>
<g mask="url(#mask0_0_141)">
</g>
<path fill-rule="evenodd" clip-rule="evenodd" d="M23.1354 14.0512C22.6043 14.1395 22.0944 14.349 21.6489 14.6577C20.6224 15.3693 20.0081 16.5742 20.0036 17.8421C20.0023 18.2148 20.0036 18.5876 20.0036 18.9605V21.3348V24.0953V26.3723V27.0595V27.2409C20.0036 27.3112 20.0029 27.2965 20.081 27.3345C20.1677 27.3767 20.2549 27.4177 20.3426 27.4576C21.0421 27.7752 21.7799 28.0169 22.5413 28.1121C23.0887 28.1805 23.6731 28.1995 24.1901 27.9758C24.6041 27.7966 24.9342 27.4659 25.1037 27.0371C25.2128 26.7615 25.244 26.4704 25.244 26.1756V22.9077V22.172V21.9373C25.244 21.9138 25.2311 21.8406 25.244 21.8209C25.2602 21.7964 25.3882 21.8121 25.425 21.8121H25.7039H26.2539H28.4613V21.8794V25.1055C28.4613 25.4842 28.4621 25.8631 28.4613 26.2418C28.4606 26.683 28.3974 27.1259 28.2212 27.5314C28.0457 27.9357 27.7641 28.277 27.4161 28.5368C26.5719 29.1673 25.4533 29.3316 24.4331 29.3789C23.7032 29.4127 22.9704 29.3835 22.2437 29.3091C21.4927 29.2323 20.733 29.1181 20.0036 28.9167V29.1783V30.9721V33.5892V35.9533V36.7055V36.9166C20.0036 36.9278 19.9955 36.9833 20.0036 36.9924C20.0188 37.0095 20.1571 36.9925 20.1844 36.9925H20.3693H20.7478H21.4961H22.996H24.4964C25.1325 36.9925 25.785 37.0374 26.4068 36.8763C27.494 36.5949 28.4178 35.8073 28.8881 34.7645C29.1462 34.1922 29.2308 33.5838 29.2308 32.9605V31.9335V30.2031V27.9608V25.4085V22.7165V20.0855V17.7159V15.7792V14.4769V14.0003H28.8579H27.2992H25.7399H24.1854C24.1161 14.0003 24.047 14 23.9778 14C23.6961 14 23.415 14.0047 23.1354 14.0512Z" fill="url(#paint1_linear_0_141)"/>
<mask id="mask1_0_141" style="mask-type:luminance" maskUnits="userSpaceOnUse" x="20" y="14" width="10" height="23">
<path fill-rule="evenodd" clip-rule="evenodd" d="M23.1354 14.0512C22.6043 14.1395 22.0944 14.349 21.6489 14.6577C20.6224 15.3693 20.0081 16.5742 20.0036 17.8421C20.0023 18.2148 20.0036 18.5876 20.0036 18.9605V21.3348V24.0953V26.3723V27.0595V27.2409C20.0036 27.3112 20.0029 27.2965 20.081 27.3345C20.1677 27.3767 20.2549 27.4177 20.3426 27.4576C21.0421 27.7752 21.7799 28.0169 22.5413 28.1121C23.0887 28.1805 23.6731 28.1995 24.1901 27.9758C24.6041 27.7966 24.9342 27.4659 25.1037 27.0371C25.2128 26.7615 25.244 26.4704 25.244 26.1756V22.9077V22.172V21.9373C25.244 21.9138 25.2311 21.8406 25.244 21.8209C25.2602 21.7964 25.3882 21.8121 25.425 21.8121H25.7039H26.2539H28.4613V21.8794V25.1055C28.4613 25.4842 28.4621 25.8631 28.4613 26.2418C28.4606 26.683 28.3974 27.1259 28.2212 27.5314C28.0457 27.9357 27.7641 28.277 27.4161 28.5368C26.5719 29.1673 25.4533 29.3316 24.4331 29.3789C23.7032 29.4127 22.9704 29.3835 22.2437 29.3091C21.4927 29.2323 20.733 29.1181 20.0036 28.9167V29.1783V30.9721V33.5892V35.9533V36.7055V36.9166C20.0036 36.9278 19.9955 36.9833 20.0036 36.9924C20.0188 37.0095 20.1571 36.9925 20.1844 36.9925H20.3693H20.7478H21.4961H22.996H24.4964C25.1325 36.9925 25.785 37.0374 26.4068 36.8763C27.494 36.5949 28.4178 35.8073 28.8881 34.7645C29.1462 34.1922 29.2308 33.5838 29.2308 32.9605V31.9335V30.2031V27.9608V25.4085V22.7165V20.0855V17.7159V15.7792V14.4769V14.0003H28.8579H27.2992H25.7399H24.1854C24.1161 14.0003 24.047 14 23.9778 14C23.6961 14 23.415 14.0047 23.1354 14.0512Z" fill="white"/>
</mask>
<g mask="url(#mask1_0_141)">
</g>
<path fill-rule="evenodd" clip-rule="evenodd" d="M33.8509 14.0095C33.4509 14.0356 33.0551 14.1287 32.6843 14.2861C31.8669 14.6333 31.1872 15.2815 30.7868 16.0948C30.5246 16.6273 30.392 17.2192 30.3896 17.8158C30.3892 17.9124 30.3896 18.0089 30.3896 18.1056V19.7984V22.8079C30.4146 22.7857 30.4401 22.7639 30.4661 22.7422C30.5576 22.6658 30.653 22.5944 30.7511 22.5274C31.3624 22.1108 32.0757 21.8775 32.7913 21.7397C33.3738 21.6276 33.9668 21.5794 34.5588 21.5677C35.1412 21.5563 35.7253 21.5767 36.3046 21.6414C36.8957 21.7072 37.4831 21.81 38.0642 21.9385C38.1356 21.9543 38.2069 21.9705 38.2781 21.9873C38.3162 21.9963 38.4621 22.0086 38.4824 22.0387C38.4969 22.0602 38.4824 22.1461 38.4824 22.171V22.4814V23.6515C38.3998 23.6086 38.3169 23.5665 38.2332 23.5258C37.6009 23.2175 36.9344 22.9885 36.2426 22.8759C35.3132 22.7245 34.2615 22.7287 33.4589 23.3022C32.6843 23.8558 32.4132 24.8381 32.4969 25.7722C32.5784 26.6813 33.0658 27.4607 33.8865 27.8241C34.6973 28.1831 35.6382 28.1348 36.4873 27.9616C37.184 27.8196 37.8482 27.5594 38.4824 27.2332V27.3487V28.7125C38.4824 28.7379 38.4971 28.8241 38.4824 28.8459C38.4626 28.8752 38.3145 28.8877 38.2781 28.8963C38.1299 28.9312 37.9811 28.9639 37.832 28.9948C37.2465 29.1163 36.6549 29.2127 36.0599 29.2676C35.4774 29.3214 34.889 29.332 34.3047 29.3092C33.7083 29.2862 33.1112 29.2228 32.528 29.0895C31.7591 28.9139 30.9937 28.6118 30.3896 28.0773V28.3285V30.0849V32.7054V35.2566V36.7694C30.3896 36.7873 30.3781 36.862 30.3896 36.8764C30.4146 36.9076 30.622 36.882 30.6707 36.882H31.4281H32.9509H34.4657C35.0004 36.882 35.5444 36.9114 36.0777 36.8721C37.0449 36.8009 37.9608 36.3295 38.5984 35.5758C39.2091 34.8539 39.5104 33.9403 39.5104 32.9881V32.1341V30.5016V28.2965V25.7234V22.9974V20.3007V17.8572V15.8515V14.4982V14.0017H39.2307H36.8793H34.537C34.4263 14.0017 34.3152 14 34.2041 14C34.0862 14 33.9683 14.0019 33.8509 14.0095Z" fill="url(#paint2_linear_0_141)"/>
<mask id="mask2_0_141" style="mask-type:luminance" maskUnits="userSpaceOnUse" x="30" y="14" width="10" height="23">
<path fill-rule="evenodd" clip-rule="evenodd" d="M33.8509 14.0095C33.4509 14.0356 33.0551 14.1287 32.6843 14.2861C31.8669 14.6333 31.1872 15.2815 30.7868 16.0948C30.5246 16.6273 30.392 17.2192 30.3896 17.8158C30.3892 17.9124 30.3896 18.0089 30.3896 18.1056V19.7984V22.8079C30.4146 22.7857 30.4401 22.7639 30.4661 22.7422C30.5576 22.6658 30.653 22.5944 30.7511 22.5274C31.3624 22.1108 32.0757 21.8775 32.7913 21.7397C33.3738 21.6276 33.9668 21.5794 34.5588 21.5677C35.1412 21.5563 35.7253 21.5767 36.3046 21.6414C36.8957 21.7072 37.4831 21.81 38.0642 21.9385C38.1356 21.9543 38.2069 21.9705 38.2781 21.9873C38.3162 21.9963 38.4621 22.0086 38.4824 22.0387C38.4969 22.0602 38.4824 22.1461 38.4824 22.171V22.4814V23.6515C38.3998 23.6086 38.3169 23.5665 38.2332 23.5258C37.6009 23.2175 36.9344 22.9885 36.2426 22.8759C35.3132 22.7245 34.2615 22.7287 33.4589 23.3022C32.6843 23.8558 32.4132 24.8381 32.4969 25.7722C32.5784 26.6813 33.0658 27.4607 33.8865 27.8241C34.6973 28.1831 35.6382 28.1348 36.4873 27.9616C37.184 27.8196 37.8482 27.5594 38.4824 27.2332V27.3487V28.7125C38.4824 28.7379 38.4971 28.8241 38.4824 28.8459C38.4626 28.8752 38.3145 28.8877 38.2781 28.8963C38.1299 28.9312 37.9811 28.9639 37.832 28.9948C37.2465 29.1163 36.6549 29.2127 36.0599 29.2676C35.4774 29.3214 34.889 29.332 34.3047 29.3092C33.7083 29.2862 33.1112 29.2228 32.528 29.0895C31.7591 28.9139 30.9937 28.6118 30.3896 28.0773V28.3285V30.0849V32.7054V35.2566V36.7694C30.3896 36.7873 30.3781 36.862 30.3896 36.8764C30.4146 36.9076 30.622 36.882 30.6707 36.882H31.4281H32.9509H34.4657C35.0004 36.882 35.5444 36.9114 36.0777 36.8721C37.0449 36.8009 37.9608 36.3295 38.5984 35.5758C39.2091 34.8539 39.5104 33.9403 39.5104 32.9881V32.1341V30.5016V28.2965V25.7234V22.9974V20.3007V17.8572V15.8515V14.4982V14.0017H39.2307H36.8793H34.537C34.4263 14.0017 34.3152 14 34.2041 14C34.0862 14 33.9683 14.0019 33.8509 14.0095Z" fill="white"/>
</mask>
<g mask="url(#mask2_0_141)">
</g>
<defs>
<linearGradient id="paint0_linear_0_141" x1="49.8952" y1="13.0053" x2="41.0778" y2="13.0053" gradientUnits="userSpaceOnUse">
<stop stop-color="#43C311"/>
<stop offset="1" stop-color="#288C00"/>
</linearGradient>
<linearGradient id="paint1_linear_0_141" x1="20.0238" y1="37.0575" x2="29.3469" y2="37.0575" gradientUnits="userSpaceOnUse">
<stop stop-color="#21469E"/>
<stop offset="1" stop-color="#1E81EB"/>
</linearGradient>
<linearGradient id="paint2_linear_0_141" x1="39.5104" y1="14" x2="30.3845" y2="14" gradientUnits="userSpaceOnUse">
<stop stop-color="#F42D3E"/>
<stop offset="1" stop-color="#9C0017"/>
</linearGradient>
</defs>
</svg>
