<svg width="70" height="50" viewBox="0 0 70 50" fill="none" xmlns="http://www.w3.org/2000/svg">
<rect width="70" height="50" rx="4" fill="#003D79"/>
<path fill-rule="evenodd" clip-rule="evenodd" d="M5.06322 26.481C5.06322 25.5843 5.04743 24.8318 5.00006 24.1609H6.64343L6.72048 25.3136H6.76659C7.13906 24.7044 7.82022 23.9841 9.0908 23.9841C10.0825 23.9841 10.8572 24.5616 11.182 25.4255H11.2139C11.4777 24.9934 11.7865 24.6736 12.1426 24.4487C12.5613 24.145 13.0418 23.9841 13.6615 23.9841C14.9162 23.9841 16.1858 24.8641 16.1858 27.3611V31.9536H14.3269V27.6496C14.3269 26.3535 13.8938 25.5843 12.9802 25.5843C12.3284 25.5843 11.8476 26.0653 11.6476 26.6257C11.6005 26.8171 11.5541 27.0574 11.5541 27.2798V31.9536H9.69459V27.4408C9.69459 26.3535 9.27696 25.5843 8.39369 25.5843C7.68096 25.5843 7.20127 26.1614 7.03043 26.7043C6.95243 26.8976 6.92117 27.121 6.92117 27.3446V31.9536H5.06322V26.481Z" fill="white"/>
<path fill-rule="evenodd" clip-rule="evenodd" d="M23.4284 30.0818C23.4284 30.7855 23.4594 31.4725 23.5369 31.9539H21.8166L21.6931 31.09H21.6461C21.1816 31.6987 20.3915 32.1301 19.4155 32.1301C17.8969 32.1301 17.0452 30.9948 17.0452 29.8099C17.0452 27.8409 18.7332 26.8496 21.5221 26.8654V26.7369C21.5221 26.2246 21.3205 25.3771 19.9884 25.3771C19.2444 25.3771 18.4694 25.6173 17.9585 25.9528L17.5861 24.6736C18.1449 24.3209 19.1218 23.9844 20.3138 23.9844C22.7316 23.9844 23.4284 25.5697 23.4284 27.2652V30.0818ZM21.5686 28.1457C20.2209 28.1134 18.9354 28.4174 18.9354 29.6018C18.9354 30.3691 19.4155 30.7219 20.0199 30.7219C20.7781 30.7219 21.3368 30.2096 21.5067 29.6497C21.5528 29.5057 21.5686 29.3451 21.5686 29.2175V28.1457Z" fill="white"/>
<path fill-rule="evenodd" clip-rule="evenodd" d="M24.7459 26.481C24.7459 25.5843 24.7288 24.8318 24.6837 24.1609H26.3554L26.4489 25.3289H26.4947C26.8204 24.7216 27.6415 23.9841 28.8961 23.9841C30.2134 23.9841 31.5767 24.8641 31.5767 27.3291V31.9536H29.6714V27.5537C29.6714 26.4327 29.2686 25.5843 28.2304 25.5843C27.4713 25.5843 26.9447 26.1446 26.7428 26.7369C26.6818 26.9134 26.6657 27.1539 26.6657 27.3764V31.9536H24.7459V26.481Z" fill="white"/>
<path fill-rule="evenodd" clip-rule="evenodd" d="M39.8384 21.0297V29.7608C39.8384 30.5608 39.8689 31.4265 39.9 31.9539H38.1957L38.1194 30.7219H38.0879C37.6383 31.5865 36.7229 32.1301 35.6241 32.1301C33.8277 32.1301 32.4019 30.5461 32.4019 28.1457C32.3861 25.5371 33.9663 23.9844 35.7788 23.9844C36.8165 23.9844 37.5608 24.4331 37.9011 25.0096H37.9325V21.0297H39.8384ZM37.9325 27.4084C37.9325 27.25 37.9165 27.0571 37.8867 26.8976C37.716 26.1294 37.1114 25.5049 36.2438 25.5049C35.02 25.5049 34.3382 26.6257 34.3382 28.082C34.3382 29.5058 35.02 30.5461 36.2283 30.5461C37.0026 30.5461 37.6848 30.0022 37.8704 29.1543C37.9165 28.9775 37.9325 28.7857 37.9325 28.577V27.4084Z" fill="white"/>
<path fill-rule="evenodd" clip-rule="evenodd" d="M41.1849 31.9535H43.1079V24.1613H41.1849V31.9535Z" fill="white"/>
<path fill-rule="evenodd" clip-rule="evenodd" d="M44.4545 26.673C44.4545 25.6173 44.4384 24.8641 44.3922 24.1607H46.0502L46.1109 25.6484H46.1751C46.5463 24.5443 47.4296 24.1607 48.2349 24.1607C48.4204 24.1607 48.5287 24.1279 48.6841 24.1607V25.8895C48.5287 25.8575 48.3587 25.8255 48.1262 25.8255C47.2123 25.8255 46.5921 26.4331 46.4219 27.3126C46.3918 27.4887 46.3605 27.6977 46.3605 27.9227V31.9539H44.4545V26.673Z" fill="white"/>
<path fill-rule="evenodd" clip-rule="evenodd" d="M49.5672 31.9535H51.4874V24.1613H49.5672V31.9535Z" fill="white"/>
<path fill-rule="evenodd" clip-rule="evenodd" d="M49.113 14.7396C47.9595 15.4295 45.239 17.0412 44.2234 17.6414C43.6045 17.9671 42.171 18.1093 41.3602 16.98C41.3456 16.9596 40.2818 15.5866 40.2383 15.5349C40.2079 15.4983 39.5201 14.4446 37.9875 14.4116C37.7611 14.4061 36.6353 14.3999 35.5369 15.0448C34.0768 15.9064 30.6811 17.9116 30.6811 17.9116C30.6802 17.9116 30.6802 17.9134 30.6784 17.9134C29.2826 18.7383 28.1951 19.3806 28.1951 19.3806L29.48 21.0107C30.0811 21.7816 31.4366 22.378 32.6122 21.681C32.6122 21.681 36.9557 19.0829 36.9716 19.0754C38.8501 18.0112 40.2996 18.0112 41.2616 18.4072C42.1252 18.7841 42.8764 19.7232 42.8764 19.7232C42.8764 19.7232 43.8582 20.98 44.0314 21.1999C44.5901 21.9101 45.5147 21.6311 45.5147 21.6311C45.5147 21.6311 45.8573 21.591 46.3738 21.2742C46.3738 21.2742 50.5811 18.7545 50.5838 18.7536C51.9197 17.9441 53.145 17.7929 53.7712 17.8524C55.7325 18.0365 56.3419 19.4518 57.1923 20.4392C57.6931 21.02 58.145 21.3497 58.8361 21.3331C59.2902 21.3232 59.8032 21.0387 59.8789 20.9874L64.917 17.9842C64.917 17.9842 64.4 17.18 63.3413 15.9287C62.3938 14.8124 61.3874 15.3175 60.585 15.728C60.2479 15.9002 59.0264 16.7395 57.8163 17.325C56.954 17.742 55.7155 17.6166 55.0367 16.7502C54.9961 16.6975 53.898 15.3243 53.7825 15.1553C53.3393 14.5819 52.4745 14.0683 51.3663 14.0683C50.6924 14.0683 49.9277 14.2582 49.113 14.7396Z" fill="url(#paint0_linear_0_94)"/>
<defs>
<linearGradient id="paint0_linear_0_94" x1="28.1951" y1="21.9897" x2="64.917" y2="21.9897" gradientUnits="userSpaceOnUse">
<stop stop-color="#FFCA06"/>
<stop offset="0.330844" stop-color="#FBAA18"/>
<stop offset="0.694742" stop-color="#FFC907"/>
<stop offset="1" stop-color="#FAA619"/>
</linearGradient>
</defs>
</svg>
