<svg width="70" height="50" viewBox="0 0 70 50" fill="none" xmlns="http://www.w3.org/2000/svg">
<rect width="70" height="50" rx="4" fill="#262626"/>
<g opacity="0.01">
<rect x="15" y="12" width="39.8152" height="25.9701" fill="white"/>
</g>
<rect x="29.6575" y="16.5246" width="10.503" height="16.9179" fill="#FF5F00"/>
<path fill-rule="evenodd" clip-rule="evenodd" d="M30.7393 24.9851C30.7367 21.6843 32.2732 18.5656 34.906 16.5276C30.4332 13.0609 24.0101 13.5659 20.1507 17.6876C16.2912 21.8093 16.2912 28.1639 20.1507 32.2855C24.0101 36.4072 30.4332 36.9122 34.906 33.4455C32.2723 31.4069 30.7358 28.2869 30.7393 24.9851Z" fill="#EB001B"/>
<path fill-rule="evenodd" clip-rule="evenodd" d="M51.5362 31.3795V32.0825H51.4628V31.3795H51.3062V31.234H51.7028V31.3795H51.5362ZM52.3062 31.234V32.0825H52.2228V31.4401L52.0928 31.9916H52.0028L51.8728 31.4401V32.0825H51.7862V31.234H51.9062L52.0462 31.8401L52.1862 31.234H52.3062Z" fill="#F79E1B"/>
<path fill-rule="evenodd" clip-rule="evenodd" d="M52.5575 24.9851C52.5574 29.1042 50.1725 32.8618 46.4156 34.6618C42.6588 36.4618 38.1895 35.9884 34.906 33.4425C37.5377 31.4028 39.0743 28.2845 39.0743 24.9836C39.0743 21.6826 37.5377 18.5643 34.906 16.5246C38.1895 13.9787 42.6588 13.5053 46.4156 15.3053C50.1725 17.1054 52.5574 20.8629 52.5575 24.9821V24.9851Z" fill="#F79E1B"/>
</svg>
