<svg width="70" height="50" viewBox="0 0 70 50" fill="none" xmlns="http://www.w3.org/2000/svg">
<rect width="70" height="50" rx="4" fill="#FFCE4C"/>
<path fill-rule="evenodd" clip-rule="evenodd" d="M23.8362 28.7332L25.5862 23.9466L26.1586 28.7332H28.0074L27.0061 21.7031H24.7498L23.2556 25.9263L21.7617 21.7031H19.5054L18.5037 28.7332H20.3529L20.9249 23.9466L22.6753 28.7332H23.8362Z" fill="#231F20"/>
<path fill-rule="evenodd" clip-rule="evenodd" d="M38.1935 23.5052L36.9396 27.1614L35.6678 23.5052H33.5552L35.9325 28.7331L34.9909 30.7841H37.0384L40.3068 23.5052H38.1935Z" fill="#231F20"/>
<path fill-rule="evenodd" clip-rule="evenodd" d="M58.9298 21.1235V28.727H60.8451V26.0796L62.8093 28.727H64.9884L62.8262 25.932L64.7954 23.5052H62.5948L60.8451 25.7884V21.1235H58.9298Z" fill="#231F20"/>
<path fill-rule="evenodd" clip-rule="evenodd" d="M42.5633 27.5207V24.7706C42.9513 24.6396 44.3568 24.2879 44.3568 26.0746C44.3568 27.8954 42.915 27.6161 42.5633 27.5207ZM40.6149 28.4639C40.6149 28.4639 41.6277 28.8433 43.0476 28.8433C44.4671 28.8433 46.3159 28.4016 46.3159 25.954C46.3159 23.5052 43.8621 23.417 43.5757 23.417C43.0353 23.417 42.6901 23.5643 42.5633 23.6294V21.112H40.6149V28.4639Z" fill="#231F20"/>
<path fill-rule="evenodd" clip-rule="evenodd" d="M48.3416 27.1223C48.3416 26.371 49.7665 26.3174 50.1581 26.317V27.6551C49.7503 27.7041 48.3416 27.8204 48.3416 27.1223ZM47.3618 24.8288C50.1574 24.0015 50.1581 24.9947 50.1581 25.1265V25.304C47.8953 25.3231 46.5473 25.9707 46.5473 27.1447C46.5473 28.3355 47.8023 28.8539 49.4643 28.8539C51.1263 28.8539 51.9735 28.4677 51.9735 28.4677V25.2147C51.9735 24.0677 51.2363 23.3398 49.4643 23.3398C47.692 23.3398 46.922 23.7592 46.922 23.7592L47.3618 24.8288Z" fill="#231F20"/>
<path fill-rule="evenodd" clip-rule="evenodd" d="M30.0494 27.1223C30.0494 26.371 31.4743 26.3174 31.8652 26.317V27.6551C31.4578 27.7041 30.0494 27.8204 30.0494 27.1223ZM29.0697 24.8288C31.8652 24.0015 31.8652 24.9947 31.8652 25.1265V25.304C29.6032 25.3231 28.2552 25.9707 28.2552 27.1447C28.2552 28.3355 29.5102 28.8539 31.1718 28.8539C32.8339 28.8539 33.6814 28.4677 33.6814 28.4677V25.2147C33.6814 24.0677 32.9442 23.3398 31.1718 23.3398C29.3999 23.3398 28.6296 23.7592 28.6296 23.7592L29.0697 24.8288Z" fill="#231F20"/>
<path fill-rule="evenodd" clip-rule="evenodd" d="M56.277 28.722H58.2031V25.4136C58.2031 23.6931 56.9708 23.3288 55.4514 23.3288C53.933 23.3288 52.7111 23.7478 52.7111 23.7478V28.722H54.6376V24.7663C56.1185 24.3325 56.277 25.0453 56.277 25.3912V28.722Z" fill="#231F20"/>
<path fill-rule="evenodd" clip-rule="evenodd" d="M8.32833 23.1665C8.32833 23.1665 8.45228 22.6784 8.65025 22.5131C8.84857 22.3475 9.56103 21.8759 10.59 21.5451C10.7125 21.5055 10.8548 21.5509 10.8613 21.553C10.8544 21.5937 10.8505 21.6214 10.8487 21.6304C10.835 21.7078 10.7772 21.7571 10.7772 21.7571C10.9863 21.7849 11.1239 21.6362 11.1623 21.4648C11.2011 21.2945 11.333 20.617 11.5479 20.6271C12.1475 20.6545 12.5768 22.5959 12.533 22.6838C12.5039 22.7414 12.2686 22.6946 12.2686 22.6946C12.6426 23.2846 13.1323 23.2789 13.2426 23.1856C13.3525 23.0924 13.2922 22.7885 13.2922 22.7885C14.4699 23.4891 14.4038 24.3218 14.4038 24.3218C14.7559 22.9433 13.9417 22.3529 13.9417 22.3529C14.2608 22.3418 14.6075 22.5459 14.6075 22.5459C14.112 21.8788 13.0885 21.5091 13.0885 21.5091C13.0885 21.5091 11.8946 20.1803 11.5094 20.23C11.19 20.2714 11.0075 20.8582 10.918 21.2593C10.8742 21.2557 10.7905 21.2524 10.6816 21.2654C10.5972 21.1603 10.2397 20.7351 10.1007 20.8751C10.0464 20.9291 10.0292 21.3122 10.0245 21.4731C9.44606 21.7035 8.46198 22.1366 8.26186 22.4545C8.08079 22.7443 8.03911 22.9595 8.03911 22.9595C8.03911 22.9595 6.85923 23.7202 6.57001 24.5482C6.57001 24.5482 7.36258 23.6212 8.32833 23.1665Z" fill="#231F20"/>
<mask id="mask0_0_90" style="mask-type:luminance" maskUnits="userSpaceOnUse" x="5" y="19" width="12" height="13">
<path fill-rule="evenodd" clip-rule="evenodd" d="M5 19.36H16.692V31.0757H5V19.36Z" fill="white"/>
</mask>
<g mask="url(#mask0_0_90)">
<path fill-rule="evenodd" clip-rule="evenodd" d="M10.8457 19.3598C7.62263 19.3598 4.99988 21.9882 4.99988 25.2174C4.99988 28.4473 7.62263 31.0757 10.8457 31.0757C14.0696 31.0757 16.692 28.4473 16.692 25.2174C16.692 21.9882 14.0696 19.3598 10.8457 19.3598ZM10.8457 19.8491C13.8044 19.8491 16.2034 22.2521 16.2034 25.2174C16.2034 28.1824 13.8044 30.5857 10.8457 30.5857C7.88742 30.5857 5.48886 28.1824 5.48886 25.2174C5.48886 22.2521 7.88742 19.8491 10.8457 19.8491Z" fill="#231F20"/>
</g>
<path fill-rule="evenodd" clip-rule="evenodd" d="M12.1255 22.552C12.1086 21.9393 11.8065 21.449 11.652 21.4206C11.4982 21.3936 11.4486 21.9775 11.4486 21.9775C11.856 22.2475 12.1255 22.552 12.1255 22.552Z" fill="#231F20"/>
<path fill-rule="evenodd" clip-rule="evenodd" d="M9.22514 22.4417C8.98838 22.5842 9.09329 22.7059 9.09329 22.7059C9.09329 22.7059 9.05484 22.5842 9.34658 22.5018C9.86682 22.3545 10.3371 22.2037 10.3256 22.0773C10.3148 21.9506 9.96275 21.9009 9.96275 21.9009C10.0619 22.0331 9.46191 22.298 9.22514 22.4417Z" fill="#231F20"/>
<path fill-rule="evenodd" clip-rule="evenodd" d="M9.47003 23.2517C9.54153 23.2517 9.59937 23.1941 9.59937 23.1224C9.59937 23.0832 9.58177 23.0493 9.5541 23.0256C9.63997 23.0198 9.83614 23.0306 9.83614 23.0306C9.81422 23.0256 9.76464 23.0807 9.65434 23.2185C9.5444 23.3568 9.44021 23.2517 9.44021 23.2517L9.43842 23.2455C9.44848 23.2477 9.4589 23.2517 9.47003 23.2517ZM9.0547 23.8417C9.0547 23.8417 9.20309 23.4947 9.31339 23.4507C9.31339 23.4507 9.50596 23.5001 9.61051 23.4612C9.71506 23.423 9.91303 23.1584 9.99027 23.1527C9.99027 23.1527 9.78656 24.0397 8.96093 24.0235C8.96093 24.0235 9.55554 24.3601 9.85806 24.1229C10.1609 23.8856 9.92955 23.7038 10.3205 23.3233C10.711 22.9424 10.4527 22.9266 10.4361 22.9323C10.4196 22.9374 10.2982 22.8989 10.2982 22.8989C10.2982 22.8989 10.3531 22.8272 10.4638 22.7783C10.5737 22.7279 11.2064 22.4417 11.2176 22.2696C11.2284 22.0993 10.7606 21.9063 10.5242 21.9114C10.5242 21.9114 10.7383 21.9996 10.7275 22.1213C10.7167 22.2426 10.1006 22.5129 10.1006 22.8603C10.1006 22.8603 9.88033 22.8765 9.72045 22.8441C9.56093 22.8103 9.39027 22.8272 9.21422 22.9424C9.03818 23.0587 9.0274 22.7999 9.04357 22.7664C9.04357 22.7664 8.70261 22.9813 9.13195 23.2571C9.13195 23.2571 8.95554 23.4392 8.93902 23.4835C8.92249 23.5274 8.85099 23.7643 9.0547 23.8417Z" fill="#231F20"/>
<path fill-rule="evenodd" clip-rule="evenodd" d="M8.50988 24.9778C8.50988 24.9778 8.50162 24.6635 8.2124 24.7298C7.72665 24.8407 7.5603 25.7054 7.5603 25.7054C8.10569 24.6967 8.50988 24.9778 8.50988 24.9778Z" fill="#231F20"/>
<path fill-rule="evenodd" clip-rule="evenodd" d="M8.69168 25.7467C8.95539 25.3172 8.63384 25.0439 8.22102 25.2751C7.80857 25.5069 7.70905 26.0613 7.70905 26.0613C8.52641 25.1681 8.69168 25.7467 8.69168 25.7467Z" fill="#231F20"/>
<path fill-rule="evenodd" clip-rule="evenodd" d="M12.588 25.1926C12.588 25.1926 12.2905 24.9288 12.3235 24.4399C12.3566 23.9517 12.4475 23.2166 11.6222 22.7032C11.6222 22.7032 11.9603 23.2245 11.8364 23.7372C11.7124 24.2502 11.2992 25.1253 11.333 25.4162C11.4074 26.053 12.0677 26.169 12.0182 27.0373C12.0182 27.0373 12.4062 26.5653 12.3322 26.0116C12.2578 25.4572 11.7706 25.2171 11.9851 24.7794C11.9851 24.7794 12.2327 25.143 12.588 25.1926Z" fill="#231F20"/>
<path fill-rule="evenodd" clip-rule="evenodd" d="M8.83601 27.7401C8.76128 27.716 8.69554 27.4427 8.69554 27.4427C8.80296 27.5298 9.02176 27.5338 9.02176 27.5338C8.91829 27.6324 8.91039 27.7649 8.83601 27.7401ZM9.66021 26.8692C9.66021 26.8692 9.91853 26.88 9.92967 26.8361C9.9408 26.7918 9.84703 26.4884 9.84703 26.4884C9.84703 26.4884 10.1718 26.5215 10.1776 26.6266C10.183 26.7306 9.99577 26.9963 9.59949 27.167C9.59949 27.167 9.67134 26.9571 9.66021 26.8692ZM7.98092 26.5881C8.01649 26.5676 8.04991 26.5456 8.08045 26.5215C8.16092 26.4606 8.22128 26.4315 8.26188 26.4182C8.25362 26.5344 8.24679 26.7389 8.28308 26.9088C8.28308 26.9088 8.06931 26.7717 7.98092 26.5881ZM6.94691 25.529C6.82045 25.529 6.59482 25.1927 6.55637 25.1265C6.51793 25.0606 6.77051 24.9389 6.84811 24.917C6.925 24.8946 7.00619 24.9134 7.01841 24.9508C7.02955 24.9828 6.85925 25.088 6.83697 25.1265C6.81506 25.1654 6.97206 25.3104 6.99649 25.341C7.04033 25.3972 7.07374 25.529 6.94691 25.529ZM14.9643 22.8848C14.9643 22.8848 15.6861 24.8511 14.8716 26.6374C14.8716 26.6374 14.9179 26.3778 14.7175 25.8659C14.5026 25.3173 14.5745 24.6084 14.6625 24.4763C14.6625 24.4763 14.2658 24.873 14.2881 25.5351C14.3104 26.196 14.4861 28.0601 13.1438 28.7549C13.1438 28.7549 13.6525 27.8229 13.4625 26.7306C13.4625 26.7306 13.636 26.7976 13.7269 27.0291C13.7269 27.0291 14.0901 26.0697 13.6195 24.8946C13.6195 24.8946 13.8836 24.9447 14.0488 25.0851C14.0488 25.0851 14.2224 24.2445 13.2728 23.6541C13.0335 23.505 13.0662 23.423 13.0662 23.423C13.0662 23.423 12.9922 23.613 13.1488 23.8031C13.3055 23.9936 13.5207 24.3658 13.4876 24.5562C13.4876 24.5562 13.2315 24.3737 12.86 24.4238C12.86 24.4238 13.5699 25.0271 13.4625 26.326C13.4625 26.326 13.2814 26.1276 12.819 26.0448C12.819 26.0448 13.3389 27.0212 12.8765 27.9554C12.8765 27.9554 12.8434 27.6245 12.6951 27.4175C12.6951 27.4175 12.5794 28.1044 11.7541 28.3445C11.7541 28.3445 12.4224 27.5086 11.6301 27.0874C10.8376 26.6648 10.1689 27.5997 10.0371 28.419C10.0371 28.419 9.12092 28.4846 9.03003 28.1127C8.93913 27.7401 9.2032 27.5828 9.2032 27.5828C9.2032 27.5828 9.34368 27.6738 9.66595 27.5252C9.98751 27.3765 10.6644 26.9708 10.5983 26.4581C10.5322 25.9458 9.7317 25.4411 9.09577 25.6474C8.46057 25.8548 8.09697 26.4171 7.76679 26.4088C7.43661 26.4005 7.03206 25.8958 7.09027 25.6316C7.14775 25.3666 7.36224 25.2921 7.43661 24.8453C7.43661 24.8453 7.32128 24.8565 7.2444 24.8068C7.16715 24.7568 6.96344 24.6743 6.8535 24.7024C6.7432 24.7298 6.47374 24.9119 6.4626 24.8784C6.45146 24.8453 6.49027 24.6462 6.49027 24.6462C6.49027 24.6462 6.19314 24.9605 6.23733 25.088C6.28116 25.2147 6.53985 25.529 6.80931 25.7057C6.80931 25.7057 6.85925 26.0913 7.21134 26.4502C7.42152 26.6644 7.61769 26.7033 7.78512 26.6673C7.85589 26.772 8.09697 27.0881 8.48104 27.1572C8.48104 27.1572 8.41458 26.7141 8.46272 26.3793C8.47745 26.3714 8.49218 26.3627 8.5044 26.3505C8.56476 26.2904 9.26931 25.6395 9.79206 26.268C9.79206 26.268 9.5553 26.3562 9.46188 26.6536C9.36847 26.952 9.3135 27.6908 8.53745 27.2166C8.53745 27.2166 8.47134 27.6411 8.70811 27.8952C8.70811 27.8952 8.67506 28.347 9.18667 28.5947C9.69865 28.8431 10.0565 28.6559 10.3867 28.8212C10.3867 28.8212 10.3536 28.1426 10.6339 27.7293C10.9148 27.3156 11.3111 27.1778 11.5037 27.3383C11.6959 27.4978 11.8173 28.1044 11.0743 28.7333C11.0743 28.7333 11.9273 28.8431 12.5107 28.3967C12.5107 28.3967 12.4382 29.1844 11.8493 29.8518C13.9831 29.3932 15.5758 27.4924 15.5758 25.2172C15.5758 24.3694 15.3534 23.5734 14.9643 22.8848Z" fill="#231F20"/>
<path fill-rule="evenodd" clip-rule="evenodd" d="M11.5368 23.0696C11.5368 23.0696 10.981 22.756 10.7334 23.0807C10.5003 23.3871 10.6519 23.9116 10.515 24.2396C10.511 24.236 10.506 24.2316 10.502 24.228C10.1938 23.9516 9.81438 24.421 9.74253 24.5585C9.67139 24.6968 9.57762 24.7126 9.57762 24.7126C8.90073 24.8508 9.04373 24.3051 8.8181 24.1398C8.59283 23.9739 8.21271 24.2172 8.21271 24.2172C8.59247 24.1445 8.68049 24.4098 8.66971 24.5142C8.65858 24.6194 8.73546 24.9286 8.84001 25.0992C8.94456 25.2699 9.36852 25.1486 9.71522 25.177C10.0619 25.204 10.2599 25.6281 10.2599 25.6281C10.469 25.1208 9.9078 24.8897 9.9078 24.8897C9.9078 24.8897 10.0716 24.578 10.2653 24.6852C10.8818 25.0269 10.7277 26.4111 10.7277 26.4111C11.2587 25.411 11.0248 24.8238 10.7478 24.4808C10.7826 24.169 10.9404 23.1855 11.5368 23.0696Z" fill="#231F20"/>
</svg>
