<svg width="70" height="50" viewBox="0 0 70 50" fill="none" xmlns="http://www.w3.org/2000/svg">
<rect width="70" height="50" rx="4" fill="white"/>
<path fill-rule="evenodd" clip-rule="evenodd" d="M35.2605 18.8873C35.0536 18.9025 34.8245 19.1183 34.7423 19.2366C34.5593 19.5001 34.6159 19.6075 34.5966 19.9196C34.5668 19.7777 34.0269 19.2188 33.8961 19.117C33.6214 18.9033 33.3205 18.7006 32.9217 18.5435C30.3617 17.5341 27.6075 19.7295 28.1464 22.5055C28.3152 22.3518 28.3693 22.2336 28.5861 22.1121C29.2545 21.7373 29.9978 21.9742 30.3504 22.5297C30.7663 23.1854 30.5523 24.3102 29.3401 24.5302C30.4027 25.5773 32.4346 25.6555 33.7652 24.6395C34.2558 24.2651 34.7433 23.6765 34.9931 22.8768C35.3064 21.8729 35.1344 21.2307 34.8387 20.33C34.9774 20.4332 35.1444 20.5411 35.3754 20.5544C35.664 20.5713 35.7988 20.4534 35.997 20.3701C35.9423 20.5568 35.8508 20.7248 35.7866 20.934C35.4263 22.1049 35.7761 23.6153 36.619 24.3915C36.8292 24.5854 36.6727 24.4846 37.0123 24.7553C38.3543 25.8269 40.1281 25.7037 41.4853 24.6336C41.2805 24.5125 40.789 24.5443 40.4631 23.9973C39.7029 22.722 41.3062 21.3553 42.4304 22.3479C42.5258 22.4324 42.5342 22.4905 42.6357 22.5658C42.7705 22.2831 42.6938 21.5335 42.6262 21.2143C42.0974 18.7214 39.1283 17.5751 37.0453 19.1296C36.7015 19.3864 36.5657 19.5927 36.2726 19.9016C36.294 19.1593 36.048 19.1562 35.6939 18.8897C36.7999 18.7241 37.2121 18.527 37.8931 17.9602C38.427 17.5158 38.8718 16.6625 38.9949 15.8946C39.15 14.9289 38.8858 14.0442 38.4534 13.3901C38.0882 12.837 37.3244 12.1442 36.6445 12.0049C37.0462 13.1358 36.2983 13.8752 35.482 13.8726C34.6027 13.8697 33.8474 12.9266 34.3144 12.0193C33.7996 12.0423 32.9273 12.8476 32.5797 13.3519C31.5917 14.7858 31.867 16.8272 33.0809 17.9148C33.752 18.5164 34.1329 18.6827 35.2605 18.8873Z" fill="#2A4095"/>
<path fill-rule="evenodd" clip-rule="evenodd" d="M28.108 10.7627C28.4809 10.7107 40.0437 10.7547 41.0181 10.7547C41.5335 10.7547 42.6505 10.6669 43.0367 10.8828C43.5889 11.1915 43.502 11.8328 43.502 12.5843V27.733C43.5022 28.2373 43.5292 28.9789 42.7042 29.0958C42.1825 29.1701 41.1281 29.108 40.5507 29.108H29.7661C29.2501 29.108 28.1097 29.2024 27.7402 28.9717C27.1879 28.6271 27.2909 28.0429 27.2909 27.2639V12.1152C27.2909 11.7612 27.2681 11.4563 27.4403 11.189C27.5734 10.9825 27.7843 10.8078 28.108 10.7627ZM42.7549 10.0593H28.0285L27.848 10.1207C27.6503 10.1728 27.5491 10.2059 27.3678 10.3221C27.154 10.4592 27.0245 10.5863 26.893 10.7837C26.557 11.2866 26.6136 11.6938 26.6136 12.3679V27.336C26.6136 27.9443 26.5427 28.4981 26.8316 28.9818C27.0499 29.3471 27.3794 29.6556 27.9244 29.76C28.3522 29.842 38.1432 29.7873 39.0768 29.7873C39.6862 29.7873 42.4356 29.8236 42.8022 29.7687C43.3574 29.6856 43.7062 29.3708 43.9275 29.0285C44.2465 28.5358 44.1793 28.0519 44.1793 27.4084V12.4037C44.1793 11.7419 44.238 11.289 43.9142 10.7959C43.507 10.1751 42.9475 10.1587 42.7549 10.0593Z" fill="#2A4095"/>
<path fill-rule="evenodd" clip-rule="evenodd" d="M9.01324 32.6059H12.3134C13.0325 32.6059 13.5705 32.7768 13.9292 33.1203C14.2864 33.4636 14.4659 33.9525 14.4659 34.587C14.4659 35.2377 14.2701 35.7476 13.8801 36.1135C13.4899 36.481 12.8935 36.664 12.0922 36.664H11.0042V39.0485H9.01324V32.6059ZM11.0042 35.3591H11.4929C11.8787 35.3591 12.1491 35.2918 12.3044 35.1581C12.4601 35.0248 12.5379 34.8538 12.5379 34.6453C12.5379 34.4428 12.4704 34.2718 12.3346 34.1309C12.2 33.99 11.9459 33.9197 11.5722 33.9197H11.0042V35.3591ZM16.8605 35.8902L15.1564 35.7102C15.2207 35.4103 15.3134 35.1748 15.4345 35.0039C15.5554 34.8315 15.7289 34.6827 15.9577 34.5568C16.1205 34.4653 16.3445 34.395 16.6303 34.3454C16.9157 34.296 17.2252 34.2704 17.5584 34.2704C18.0919 34.2704 18.5195 34.3004 18.8438 34.3604C19.1668 34.4205 19.4373 34.5465 19.6525 34.7368C19.805 34.8688 19.9245 35.0564 20.0111 35.2976C20.0994 35.5392 20.1427 35.7701 20.1427 35.9905V38.0541C20.1427 38.2745 20.1562 38.4471 20.1845 38.5714C20.2114 38.696 20.2726 38.8548 20.3655 39.0485H18.6958C18.6284 38.9284 18.5853 38.8384 18.5642 38.7756C18.545 38.7125 18.5241 38.6149 18.5029 38.4815C18.2698 38.7064 18.038 38.8671 17.8065 38.9631C17.491 39.0918 17.125 39.1563 16.708 39.1563C16.1533 39.1563 15.7317 39.0274 15.445 38.7679C15.1564 38.5099 15.013 38.1904 15.013 37.8126C15.013 37.4572 15.1161 37.1647 15.3237 36.9354C15.5317 36.7059 15.9142 36.5348 16.4717 36.424C17.1397 36.289 17.5735 36.1946 17.7722 36.1389C17.9709 36.0851 18.1816 36.0147 18.4028 35.9261C18.4028 35.7057 18.3582 35.5527 18.2669 35.4641C18.1773 35.3756 18.0188 35.3321 17.7915 35.3321C17.5 35.3321 17.282 35.3787 17.1353 35.4731C17.0217 35.5481 16.9305 35.6861 16.8605 35.8902ZM18.4028 36.826C18.1577 36.9145 17.9021 36.9925 17.6345 37.0613C17.273 37.1587 17.0429 37.2547 16.9469 37.3494C16.8469 37.4467 16.7975 37.5578 16.7975 37.6821C16.7975 37.8247 16.8469 37.9417 16.9439 38.0316C17.0429 38.1215 17.1862 38.1665 17.376 38.1665C17.5747 38.1665 17.76 38.1169 17.9321 38.0196C18.1025 37.9221 18.2236 37.8036 18.2952 37.6627C18.367 37.5218 18.4028 37.3388 18.4028 37.1139V36.826ZM21.2098 34.3783H22.872V35.1388C23.1199 34.8267 23.3697 34.6049 23.6236 34.4715C23.8778 34.3378 24.1858 34.2704 24.5504 34.2704C25.0438 34.2704 25.4279 34.4173 25.7074 34.713C25.9854 35.0068 26.1245 35.4627 26.1245 36.079V39.0485H24.3308V36.4794C24.3308 36.1856 24.277 35.9786 24.1693 35.8571C24.0618 35.7356 23.9107 35.6741 23.7164 35.6741C23.5028 35.6741 23.3279 35.7566 23.1948 35.9202C23.0617 36.0851 22.9944 36.3789 22.9944 36.805V39.0485H21.2098V34.3783ZM27.2545 39.0484H29.0391V34.3783H27.2545V39.0484ZM30.178 34.3783H31.8401V35.1388C32.0882 34.8267 32.338 34.6049 32.5919 34.4715C32.8461 34.3378 33.1538 34.2704 33.5187 34.2704C34.0118 34.2704 34.3961 34.4173 34.6754 34.713C34.9537 35.0068 35.0924 35.4627 35.0924 36.079V39.0485H33.2988V36.4794C33.2988 36.1856 33.2451 35.9786 33.1373 35.8571C33.0298 35.7356 32.8789 35.6741 32.6846 35.6741C32.4708 35.6741 32.2959 35.7566 32.163 35.9202C32.0298 36.0851 31.9627 36.3789 31.9627 36.805V39.0485H30.178V34.3783Z" fill="#FF0000"/>
<path fill-rule="evenodd" clip-rule="evenodd" d="M36.7284 32.6059H40.4458C41.0646 32.6059 41.54 32.7604 41.872 33.0677C42.2036 33.375 42.3695 33.7561 42.3695 34.2105C42.3695 34.5913 42.2515 34.9182 42.0139 35.1897C41.8567 35.3726 41.6252 35.5153 41.3218 35.6217C41.7837 35.7327 42.1214 35.9232 42.3395 36.1946C42.5565 36.4659 42.6656 36.8064 42.6656 37.2158C42.6656 37.5504 42.5877 37.8503 42.4338 38.1169C42.2784 38.3839 42.0662 38.594 41.7985 38.7502C41.6312 38.8458 41.3799 38.9164 41.0438 38.9598C40.5969 39.0185 40.3009 39.0485 40.1545 39.0485H36.7284V32.6059ZM38.7285 35.1344H39.594C39.9032 35.1344 40.1201 35.0802 40.2409 34.9739C40.3622 34.8657 40.4235 34.7114 40.4235 34.5088C40.4235 34.3216 40.3622 34.1745 40.2409 34.0694C40.1201 33.9631 39.9077 33.9106 39.6072 33.9106H38.7285V35.1344ZM38.7285 37.6627H39.7404C40.0826 37.6627 40.3234 37.6012 40.4636 37.4798C40.6043 37.3581 40.6745 37.1964 40.6745 36.9908C40.6745 36.8005 40.6059 36.6475 40.4668 36.5318C40.3279 36.4166 40.0841 36.358 39.7359 36.358H38.7285V37.6627ZM45.2108 35.8902L43.507 35.7102C43.5712 35.4103 43.664 35.1748 43.785 35.0039C43.9061 34.8315 44.0794 34.6827 44.308 34.5568C44.471 34.4653 44.6952 34.395 44.9808 34.3454C45.2662 34.296 45.5757 34.2704 45.909 34.2704C46.4425 34.2704 46.8701 34.3004 47.1944 34.3604C47.5173 34.4205 47.7877 34.5465 48.003 34.7368C48.1552 34.8688 48.2749 35.0564 48.3616 35.2976C48.4499 35.5392 48.4932 35.7701 48.4932 35.9905V38.0541C48.4932 38.2745 48.5067 38.4471 48.535 38.5714C48.5619 38.696 48.6233 38.8548 48.716 39.0485H47.0463C46.9792 38.9284 46.9359 38.8384 46.9147 38.7756C46.8955 38.7125 46.8745 38.6149 46.8537 38.4815C46.6204 38.7064 46.3886 38.8671 46.1572 38.9631C45.8416 39.0918 45.4755 39.1563 45.0586 39.1563C44.5038 39.1563 44.0823 39.0274 43.7954 38.7679C43.507 38.5099 43.3635 38.1904 43.3635 37.8126C43.3635 37.4572 43.4665 37.1647 43.6743 36.9354C43.8822 36.7059 44.2647 36.5348 44.8223 36.424C45.4904 36.289 45.9237 36.1946 46.1227 36.1389C46.3214 36.0851 46.5323 36.0147 46.7533 35.9261C46.7533 35.7057 46.7086 35.5527 46.6174 35.4641C46.5276 35.3756 46.3693 35.3321 46.142 35.3321C45.8505 35.3321 45.6325 35.3787 45.4858 35.4731C45.3722 35.5481 45.281 35.6861 45.2108 35.8902ZM46.7533 36.826C46.5084 36.9145 46.2528 36.9925 45.985 37.0613C45.6235 37.1587 45.3934 37.2547 45.2977 37.3494C45.1975 37.4467 45.1481 37.5578 45.1481 37.6821C45.1481 37.8247 45.1975 37.9417 45.2946 38.0316C45.3934 38.1215 45.5366 38.1665 45.7266 38.1665C45.9254 38.1665 46.1107 38.1169 46.2827 38.0196C46.4531 37.9221 46.5739 37.8036 46.6457 37.6627C46.7176 37.5218 46.7533 37.3388 46.7533 37.1139V36.826ZM49.5603 34.3783H51.2227V35.1388C51.4708 34.8267 51.7202 34.6049 51.9745 34.4715C52.2285 34.3378 52.5363 34.2704 52.901 34.2704C53.3944 34.2704 53.7783 34.4173 54.058 34.713C54.336 35.0068 54.475 35.4627 54.475 36.079V39.0485H52.6814V36.4794C52.6814 36.1856 52.6275 35.9786 52.52 35.8571C52.4124 35.7356 52.2614 35.6741 52.067 35.6741C51.8532 35.6741 51.6785 35.7566 51.5453 35.9202C51.4124 36.0851 51.345 36.3789 51.345 36.805V39.0485H49.5603V34.3783ZM55.5421 32.6059H57.3626V35.9232L58.6945 34.3783H60.8872L59.2192 36.013L60.9858 39.0485H58.9784L58.034 37.1767L57.3626 37.8351V39.0485H55.5421V32.6059Z" fill="#2A4095"/>
<path fill-rule="evenodd" clip-rule="evenodd" d="M28.3486 26.5913H29.0317C29.1805 26.5913 29.2917 26.6267 29.3662 26.6978C29.4403 26.7688 29.4773 26.8699 29.4773 27.0014C29.4773 27.136 29.4364 27.2416 29.3559 27.3174C29.2751 27.3936 29.1516 27.4312 28.986 27.4312H28.7607V27.9249H28.3486V26.5913ZM28.7607 27.1612H28.8617C28.9416 27.1612 28.9976 27.1472 29.0297 27.1196C29.0618 27.0921 29.0779 27.0566 29.0779 27.0133C29.0779 26.9714 29.0642 26.9361 29.0358 26.907C29.0081 26.8778 28.9555 26.8632 28.8781 26.8632H28.7607V27.1612ZM30.3509 27.7051H29.8855L29.8189 27.9249H29.3995L29.8998 26.5913H30.3493L30.8475 27.9249H30.4175L30.3509 27.7051ZM30.264 27.4164L30.1188 26.937L29.9732 27.4164H30.264ZM30.9809 26.5913H31.3641L31.8628 27.3275V26.5913H32.2507V27.9249H31.8628L31.3671 27.1926V27.9249H30.9809V26.5913ZM32.5403 27.9249H32.9523V26.5913H32.5403V27.9249ZM33.2497 26.5913H33.6331L34.1315 27.3275V26.5913H34.5195V27.9249H34.1315L33.6358 27.1926V27.9249H33.2497V26.5913ZM36.0797 27.4423V27.1649H36.7148V27.7321C36.5932 27.8154 36.4859 27.8721 36.3927 27.9021C36.2993 27.9323 36.1884 27.9472 36.0604 27.9472C35.9026 27.9472 35.7739 27.9202 35.6746 27.8663C35.5752 27.8125 35.498 27.7321 35.4434 27.6253C35.3887 27.5186 35.3614 27.3962 35.3614 27.2581C35.3614 27.1125 35.3913 26.9859 35.4511 26.8784C35.511 26.7709 35.5982 26.6893 35.714 26.6333C35.8038 26.5904 35.9252 26.5688 36.0773 26.5688C36.224 26.5688 36.3339 26.5822 36.4067 26.609C36.4796 26.6354 36.5399 26.6768 36.5879 26.733C36.6357 26.7893 36.672 26.8603 36.6963 26.9462L36.3006 27.0179C36.2843 26.9671 36.2567 26.9285 36.2179 26.9017C36.1789 26.8746 36.1294 26.8613 36.0689 26.8613C35.979 26.8613 35.9072 26.8927 35.8535 26.9552C35.8001 27.0181 35.7734 27.1175 35.7734 27.253C35.7734 27.3972 35.8004 27.5002 35.8546 27.5619C35.9085 27.6237 35.9838 27.6546 36.0804 27.6546C36.1262 27.6546 36.1699 27.6484 36.2116 27.6348C36.2531 27.6216 36.3006 27.5987 36.3546 27.5672V27.4423H36.0797ZM36.9634 27.9249V26.5913H37.6479C37.7747 26.5913 37.872 26.602 37.9389 26.624C38.006 26.6458 38.0602 26.6867 38.1011 26.7455C38.1424 26.8049 38.1627 26.877 38.1627 26.9622C38.1627 27.0361 38.1468 27.1 38.1154 27.1535C38.0842 27.2077 38.0408 27.2511 37.9856 27.2847C37.9505 27.3058 37.9021 27.3235 37.8413 27.3375C37.8903 27.3537 37.9257 27.3702 37.9481 27.3866C37.963 27.3976 37.9849 27.4211 38.0136 27.4566C38.042 27.4924 38.0612 27.52 38.071 27.5396L38.2705 27.9249H37.8065L37.5869 27.5182C37.5591 27.4654 37.5345 27.4312 37.5126 27.4155C37.483 27.3951 37.4492 27.3845 37.4119 27.3845H37.3757V27.9249H36.9634ZM37.3757 27.1331H37.5491C37.5679 27.1331 37.6044 27.1271 37.6582 27.1148C37.6854 27.1096 37.7076 27.0958 37.7248 27.073C37.742 27.0504 37.7508 27.0247 37.7508 26.9955C37.7508 26.9523 37.7369 26.9191 37.7097 26.8962C37.6825 26.8728 37.6316 26.8613 37.5562 26.8613H37.3757V27.1331ZM38.3181 27.2591C38.3181 27.0414 38.3783 26.8719 38.4993 26.7508C38.6204 26.6294 38.7888 26.5688 39.0046 26.5688C39.2259 26.5688 39.3962 26.6286 39.516 26.7474C39.6358 26.8667 39.6955 27.0337 39.6955 27.2482C39.6955 27.4038 39.6696 27.5314 39.6173 27.6312C39.5649 27.7308 39.4891 27.8085 39.3906 27.8641C39.2914 27.9196 39.1682 27.9472 39.0206 27.9472C38.8709 27.9472 38.747 27.9233 38.6484 27.8756C38.5504 27.8273 38.4706 27.7518 38.4096 27.6478C38.3487 27.5446 38.3181 27.4147 38.3181 27.2591ZM38.7282 27.26C38.7282 27.3943 38.7533 27.4912 38.8033 27.55C38.8532 27.6086 38.9214 27.6379 39.0072 27.6379C39.0956 27.6379 39.1643 27.6091 39.2126 27.5518C39.2612 27.4941 39.2853 27.3909 39.2853 27.2416C39.2853 27.1162 39.2599 27.0247 39.2094 26.9668C39.1588 26.9089 39.0902 26.8799 39.0036 26.8799C38.9209 26.8799 38.854 26.9094 38.8038 26.9682C38.7533 27.0269 38.7282 27.1241 38.7282 27.26ZM40.7816 26.5913H41.1917V27.3856C41.1917 27.4641 41.1796 27.5386 41.155 27.6086C41.1304 27.6786 41.0924 27.7398 41.0398 27.7923C40.9875 27.8449 40.9328 27.8815 40.8757 27.9028C40.7958 27.9323 40.7 27.9472 40.5882 27.9472C40.5234 27.9472 40.4528 27.9424 40.3765 27.9336C40.3001 27.9246 40.2362 27.9066 40.1848 27.8795C40.1333 27.8525 40.0863 27.8143 40.044 27.7648C40.0012 27.7152 39.9721 27.6638 39.9564 27.611C39.9309 27.5263 39.9182 27.451 39.9182 27.3856V26.5913H40.3286V27.4043C40.3286 27.4773 40.3487 27.534 40.3886 27.5747C40.4288 27.6157 40.4846 27.6362 40.5556 27.6362C40.6259 27.6362 40.6812 27.6159 40.7216 27.5757C40.7615 27.5357 40.7816 27.4784 40.7816 27.4043V26.5913ZM41.461 26.5913H42.1442C42.2929 26.5913 42.4043 26.6267 42.4787 26.6978C42.5525 26.7688 42.5897 26.8699 42.5897 27.0014C42.5897 27.136 42.549 27.2416 42.4685 27.3174C42.3875 27.3936 42.2642 27.4312 42.0985 27.4312H41.8732V27.9249H41.461V26.5913ZM41.8732 27.1612H41.9742C42.054 27.1612 42.1101 27.1472 42.1424 27.1196C42.1743 27.0921 42.1905 27.0566 42.1905 27.0133C42.1905 26.9714 42.1766 26.9361 42.1484 26.907C42.1206 26.8778 42.0681 26.8632 41.9907 26.8632H41.8732V27.1612Z" fill="#2A4095"/>
<path fill-rule="evenodd" clip-rule="evenodd" d="M28.1596 31.6152C28.779 31.6152 29.2811 32.119 29.2811 32.7405C29.2811 33.362 28.779 33.8658 28.1596 33.8658C27.5401 33.8658 27.038 33.362 27.038 32.7405C27.038 32.119 27.5401 31.6152 28.1596 31.6152Z" fill="#2A4095"/>
</svg>
