<svg width="70" height="50" viewBox="0 0 70 50" fill="none" xmlns="http://www.w3.org/2000/svg">
<rect width="70" height="50" rx="4" fill="white"/>
<mask id="mask0_0_98" style="mask-type:luminance" maskUnits="userSpaceOnUse" x="0" y="0" width="70" height="50">
<rect width="70" height="50" rx="4" fill="white"/>
</mask>
<g mask="url(#mask0_0_98)">
<path fill-rule="evenodd" clip-rule="evenodd" d="M25.0235 14.1894L25 14.6444L33.8029 24.8794L34.1191 24.9298L34.1589 24.9099L34.3134 24.6272L30.5591 12.1728L29.922 11.7472L25.0235 14.1894Z" fill="#0096B8"/>
<path fill-rule="evenodd" clip-rule="evenodd" d="M33.8028 24.8794L34.1186 24.9297L27.627 15.1413L24.9999 14.6444L33.8028 24.8794Z" fill="#005675"/>
<path fill-rule="evenodd" clip-rule="evenodd" d="M29.9221 11.7471L27.6779 14.3656L28.5944 14.7627L30.5592 12.1732V12.1728L29.9221 11.7471Z" fill="#0BBBEF"/>
<path fill-rule="evenodd" clip-rule="evenodd" d="M28.5936 14.7627L34.1591 24.9099L34.3136 24.6263L30.5597 12.1736L28.5936 14.7627Z" fill="#007290"/>
<path fill-rule="evenodd" clip-rule="evenodd" d="M38.6545 11.7738L34.8896 28.6164L35.0224 28.9325L35.0855 28.9606L35.5118 28.8499L44.8532 14.8257L44.8428 14.094L39.1503 11.5002L38.6545 11.7738Z" fill="#81B73E"/>
<path fill-rule="evenodd" clip-rule="evenodd" d="M41.0611 15.146L35.0862 28.9605L35.5115 28.8499L44.8532 14.8256L41.0611 15.146Z" fill="#69931D"/>
<path fill-rule="evenodd" clip-rule="evenodd" d="M34.8893 28.6156L35.0225 28.9316L39.9865 14.5597L38.6542 11.7742L34.8893 28.6156Z" fill="#277933"/>
<path fill-rule="evenodd" clip-rule="evenodd" d="M44.8423 14.0945L40.8461 14.1457L41.0615 15.1463L44.8531 14.8257L44.8428 14.0945H44.8423Z" fill="#AECC53"/>
<path fill-rule="evenodd" clip-rule="evenodd" d="M38.6545 11.7737L39.9855 14.5588L40.8461 14.1458L39.1503 11.5008L38.6545 11.7737Z" fill="#69931D"/>
<path fill-rule="evenodd" clip-rule="evenodd" d="M37.9699 7L30.6829 7.07776L30.4556 7.51014L34.482 19.012L34.7211 19.1714L34.7282 19.1725L34.9499 19.0455L38.4409 7.484L37.9699 7Z" fill="#E4032E"/>
<path fill-rule="evenodd" clip-rule="evenodd" d="M30.4556 7.51014L34.482 19.012L34.7198 19.1717L33.2794 8.90267L30.4556 7.5097V7.51014Z" fill="#791B15"/>
<path fill-rule="evenodd" clip-rule="evenodd" d="M34.6493 8.90449L34.728 19.1724L34.9497 19.0445L38.4405 7.48407L34.6493 8.90449Z" fill="#B51227"/>
<path fill-rule="evenodd" clip-rule="evenodd" d="M43.6986 38.0376C43.7044 37.917 43.7112 37.7246 43.717 37.4618V32.4035L43.7015 31.9128C43.6976 31.8088 43.6929 31.738 43.6879 31.7001C43.6828 31.6606 43.6748 31.6269 43.6639 31.5963C43.6275 31.4717 43.5477 31.3835 43.4279 31.33C43.317 31.281 43.1528 31.2574 42.9401 31.2559V31.0843L45.6889 31.0833C46.0888 31.085 46.4495 31.1119 46.7716 31.1669C47.0939 31.2205 47.3533 31.2951 47.552 31.3906C48.1262 31.6772 48.4103 32.1595 48.407 32.8445C48.4141 33.8252 47.8005 34.4506 46.5303 34.6121L46.3173 34.6483C46.603 34.6593 46.9889 34.7586 47.1689 34.8027C47.3473 34.846 47.5221 34.9146 47.6937 35.0083C48.3675 35.3643 48.6996 35.9328 48.6929 36.7206C48.6961 37.6761 48.2529 38.2966 47.3529 38.5904C47.1566 38.6496 46.9097 38.6959 46.6119 38.73C46.3126 38.7639 45.9885 38.781 45.6379 38.7818H42.9401V38.6094C43.2581 38.6052 43.4765 38.5542 43.5733 38.4346C43.6134 38.3944 43.6422 38.3494 43.661 38.2982C43.6804 38.2464 43.6922 38.1572 43.6986 38.0376ZM44.5447 31.3205V34.5302H45.6175C46.8648 34.5224 47.5108 33.9782 47.5175 32.8879C47.5264 31.8292 46.8459 31.3126 45.5256 31.3205H44.5447ZM47.7327 36.634C47.7251 35.8866 47.468 35.3572 46.9547 35.061C46.7986 34.9782 46.6008 34.9138 46.3628 34.8679C46.1256 34.8224 45.8631 34.7995 45.5765 34.7987H44.5447V38.5456H45.5765C46.3241 38.5488 46.8706 38.4022 47.2072 38.0951C47.3774 37.9469 47.507 37.7475 47.5969 37.4963C47.6865 37.2452 47.7311 36.9568 47.7327 36.634Z" fill="black"/>
<path fill-rule="evenodd" clip-rule="evenodd" d="M52.6273 38.5622C52.5714 38.4463 52.5321 38.3084 52.5156 37.9555L52.5104 37.8517L52.4444 37.9305C52.3657 38.0225 52.2885 38.1044 52.2136 38.173C52.1375 38.2422 52.0492 38.3132 51.9506 38.3848C51.7338 38.5526 51.5246 38.6707 51.3243 38.7393C51.1236 38.8079 50.898 38.841 50.6462 38.8385C50.2077 38.841 49.8711 38.7315 49.6305 38.5164C49.4964 38.3896 49.3904 38.2298 49.3128 38.0359C49.2363 37.8422 49.1966 37.6343 49.1949 37.4105C49.1997 36.5867 49.6807 36.0559 50.6654 35.8203C50.9257 35.7566 51.2009 35.7044 51.4904 35.6643C51.7802 35.6233 52.1097 35.5896 52.4774 35.5635L52.5156 34.8452C52.5156 34.5995 52.5047 34.4001 52.4819 34.2488C52.4591 34.0955 52.4212 33.9616 52.3679 33.8488C52.2221 33.5496 51.9241 33.4063 51.494 33.4063C50.8035 33.4022 50.4296 33.7481 50.3906 34.434C50.387 34.5435 50.3772 34.6208 50.3632 34.6663C50.3502 34.7105 50.3277 34.7427 50.2962 34.7663C50.2273 34.8153 50.1178 34.8429 49.9612 34.8452C49.6224 34.85 49.4957 34.7444 49.5013 34.5663C49.5035 34.3804 49.5624 34.2003 49.68 34.0267C49.7986 33.8526 49.963 33.7008 50.1756 33.5724C50.5577 33.3496 51.0472 33.2361 51.6473 33.2336C52.3043 33.2361 52.7447 33.3919 52.9853 33.6913C53.0828 33.8166 53.1549 33.9724 53.2015 34.1608C53.2487 34.3483 53.2724 34.5869 53.272 34.8766L53.2711 34.9374L53.2659 35.2185L53.2516 35.9606L53.2412 36.9804L53.2311 37.4743C53.2322 37.7067 53.2412 37.8839 53.257 38.0823C53.2717 38.2753 53.3375 38.4911 53.4847 38.5479C53.6377 38.6077 53.7854 38.6313 54.0664 38.633C54.2727 38.6292 54.4314 38.6039 54.5391 38.5559C54.6617 38.5016 54.7374 38.3848 54.7702 38.2195C54.8018 38.0587 54.8152 37.813 54.8123 37.4846V34.6058C54.819 34.2136 54.7757 33.938 54.6696 33.7938C54.5656 33.6536 54.3723 33.5928 54.107 33.5961V33.4423L55.5687 33.3313V34.5545L55.6449 34.4113C55.8609 34.0071 56.1064 33.7204 56.3799 33.5488C56.6529 33.377 56.9951 33.2911 57.4073 33.2961C58.0276 33.2865 58.4589 33.5046 58.7114 33.941C58.8044 34.0875 58.8714 34.2631 58.9117 34.4696C58.9517 34.6759 58.9724 34.9391 58.9708 35.2603V37.4846C58.9672 37.8163 58.9802 38.0635 59.0107 38.2243C59.0422 38.3896 59.1163 38.5054 59.2396 38.5582C59.3418 38.6031 59.5793 38.6267 59.7816 38.6321C59.9716 38.6267 60.118 38.6014 60.2186 38.5559C60.3381 38.5006 60.4108 38.3841 60.4414 38.2195C60.4713 38.0582 60.4844 37.813 60.4804 37.4846V32.2547C60.4844 31.9547 60.4722 31.7326 60.4438 31.5892C60.4139 31.4393 60.3404 31.337 60.2204 31.2921C60.1162 31.2536 59.96 31.2355 59.7549 31.2345V31.082L61.2751 31.0001C61.256 31.3551 61.2417 31.7174 61.2316 32.0884C61.2218 32.4751 61.2167 32.813 61.2167 33.1022V36.6157L62.8911 34.6877C63.128 34.4121 63.2578 34.1804 63.2598 33.9947C63.2716 33.7363 63.0238 33.6197 62.6159 33.5983V33.4456H64.7924V33.6006C64.6617 33.6164 64.5481 33.6418 64.4511 33.6764C64.3459 33.7142 64.2381 33.7684 64.1279 33.8385C64.0162 33.9094 63.9221 33.9749 63.8465 34.034C63.7693 34.0945 63.6781 34.1812 63.5737 34.293C63.4691 34.405 63.3169 34.5743 63.1175 34.802L62.565 35.4273L64.0117 37.8195C64.177 38.1029 64.3289 38.3029 64.4685 38.4163C64.6017 38.5252 64.7717 38.5951 64.9764 38.6283V38.7843H63.653C63.6167 38.7071 63.5665 38.6062 63.5027 38.4825L63.2922 38.0785L63.1309 37.7743L62.0605 35.9408L61.2189 36.9309L61.2167 37.4846C61.2127 37.813 61.2256 38.0587 61.256 38.2195C61.287 38.3848 61.3606 38.5006 61.4821 38.5559C61.5885 38.6039 61.7462 38.6292 61.9517 38.633V38.7843H57.4789V38.633C57.7818 38.6243 57.9901 38.5724 58.0733 38.4557C58.1067 38.4109 58.132 38.3597 58.1502 38.3022C58.1676 38.2446 58.1786 38.1698 58.1837 38.0785C58.1897 38.0067 58.1959 37.9027 58.2026 37.7665C58.2102 37.6296 58.2138 37.5357 58.2145 37.4854V35.3248C58.2165 34.7924 58.1621 34.398 58.0474 34.1473C57.8727 33.7528 57.558 33.5551 57.1115 33.5534C56.6134 33.5519 56.2166 33.8008 55.9224 34.293C55.8114 34.4791 55.7253 34.6909 55.663 34.9271C55.6015 35.1633 55.5693 35.3966 55.5687 35.625V37.4846C55.5649 37.8163 55.578 38.0635 55.6082 38.2243C55.6398 38.3896 55.7139 38.5054 55.8374 38.5582C55.9452 38.6054 56.1053 38.6292 56.3145 38.633V38.7843H54.1144C53.9195 38.7913 53.5474 38.8016 53.3634 38.7991C53.17 38.7961 53.077 38.7747 52.901 38.7606C52.7447 38.7124 52.6789 38.67 52.6273 38.5622ZM50.0331 37.3782C50.0368 37.7288 50.1178 38.013 50.2797 38.2273C50.4419 38.4431 50.661 38.5542 50.9319 38.5589C51.2054 38.5551 51.4644 38.4801 51.7057 38.3353C51.947 38.1896 52.1375 37.9949 52.2751 37.754C52.359 37.6003 52.4203 37.4027 52.4585 37.1623C52.4968 36.9244 52.5156 36.6277 52.5156 36.2724V35.721C52.0255 35.766 51.6749 35.8147 51.4206 35.8715C51.1639 35.9283 50.9375 36.0094 50.7399 36.1164C50.2719 36.3606 50.0368 36.7844 50.0331 37.3782Z" fill="black"/>
<path fill-rule="evenodd" clip-rule="evenodd" d="M6.99257 35.5415V37.4563C6.98876 37.7634 7.00562 37.9918 7.04278 38.1407C7.08048 38.2895 7.16133 38.388 7.28659 38.436C7.4113 38.484 7.60363 38.5118 7.8623 38.5163V38.7841H5.00006V38.5163C5.24369 38.5118 5.42405 38.484 5.54169 38.436C5.65861 38.388 5.7342 38.2895 5.76882 38.1407C5.80308 37.9918 5.81885 37.7634 5.81523 37.4563V32.4217C5.81849 32.1144 5.80344 31.886 5.77027 31.7371C5.73692 31.5874 5.66387 31.4883 5.55221 31.4386C5.44018 31.3889 5.26816 31.36 5.03613 31.3512V31.0834H7.76242C8.68145 31.0794 9.35486 31.2497 9.7823 31.5944C10.2099 31.9396 10.4213 32.4822 10.4162 33.2251C10.4195 34.268 10.0328 34.9506 9.2568 35.2737C9.0545 35.3563 8.79638 35.4217 8.48296 35.4689C8.16882 35.5161 7.82006 35.5407 7.43631 35.5415H6.99257ZM6.99257 35.243H7.46387C8.02997 35.2405 8.44635 35.1005 8.71372 34.8207C8.85891 34.6592 8.96894 34.4466 9.04435 34.1843C9.11903 33.9228 9.1571 33.6236 9.15746 33.2864C9.15456 32.0184 8.6258 31.3836 7.57263 31.3819H6.99257V35.243Z" fill="black"/>
<path fill-rule="evenodd" clip-rule="evenodd" d="M15.0242 35.8644H11.6942C11.6975 36.2377 11.7184 36.551 11.7564 36.804C11.7943 37.0562 11.8554 37.2869 11.9391 37.4962C12.2158 38.1737 12.643 38.5124 13.2213 38.5124C13.5486 38.5101 13.8454 38.4091 14.112 38.2084C14.3781 38.0076 14.5998 37.7185 14.7762 37.3429L15.012 37.5067C14.7802 37.9918 14.4968 38.3478 14.1624 38.5754C13.828 38.8023 13.4201 38.915 12.9381 38.9126C12.1802 38.9023 11.4829 38.6478 11.0464 38.1493C10.6095 37.6507 10.3869 36.967 10.3782 36.1006C10.3869 35.227 10.6023 34.5364 11.0241 34.0274C11.4455 33.5189 12.1186 33.2589 12.844 33.2478C13.3264 33.2488 13.7923 33.3644 14.1229 33.5945C14.4535 33.8236 14.6973 34.16 14.8545 34.6027C14.9058 34.7491 14.9449 34.9168 14.9712 35.1069C14.9977 35.2958 15.0155 35.5486 15.0242 35.8644ZM11.7035 35.5674H13.7866C13.7781 35.2507 13.7622 34.9956 13.7382 34.8027C13.7149 34.6088 13.6771 34.4364 13.6266 34.2844C13.4504 33.7457 13.1803 33.4787 12.8159 33.4832C12.4072 33.4874 12.1025 33.7882 11.9014 34.3867C11.85 34.5419 11.809 34.712 11.7774 34.8964C11.7463 35.0808 11.7214 35.3044 11.7035 35.5674Z" fill="black"/>
<path fill-rule="evenodd" clip-rule="evenodd" d="M15.2372 33.3943L17.0843 33.2604C17.0943 33.4543 17.1015 33.6164 17.1066 33.7481C17.1117 33.8804 17.114 33.9961 17.114 34.097V34.4065C17.5153 33.6355 18.0001 33.2463 18.5681 33.2401C18.8136 33.2448 19.0132 33.3202 19.1662 33.4652C19.3195 33.6109 19.3985 33.7976 19.4031 34.0246C19.3996 34.2136 19.3333 34.3648 19.2042 34.4789C19.0753 34.5922 18.9057 34.6515 18.6959 34.6538C18.4436 34.6623 18.2897 34.553 18.2341 34.3239C18.1976 34.182 18.1601 34.086 18.121 34.0347C18.0822 33.9835 18.0251 33.9599 17.9489 33.9623H17.9295C17.7361 33.9795 17.5529 34.141 17.379 34.4482C17.3007 34.601 17.2418 34.7696 17.2025 34.9545C17.1631 35.1397 17.1436 35.3532 17.1436 35.5943V37.5042C17.1396 37.8092 17.1539 38.0336 17.1858 38.1785C17.2175 38.3225 17.29 38.417 17.4024 38.4621C17.5153 38.5061 17.6906 38.5313 17.9295 38.5368V38.7842H15.198V38.5368C15.4206 38.5376 15.5857 38.5149 15.6927 38.4684C15.8004 38.422 15.8696 38.325 15.9015 38.1785C15.9338 38.0303 15.9479 37.806 15.945 37.5042V34.6437C15.9537 34.2181 15.9135 33.9418 15.8232 33.8141C15.7329 33.6865 15.5377 33.629 15.2372 33.6425V33.3943Z" fill="black"/>
<path fill-rule="evenodd" clip-rule="evenodd" d="M21.5977 33.2604L21.6077 34.2827C22.0056 33.5945 22.5755 33.2471 23.3174 33.24C24.0718 33.2353 24.5372 33.596 24.7124 34.3246C24.9256 33.9488 25.1696 33.6739 25.4431 33.4999C25.7167 33.3242 26.0364 33.2376 26.4022 33.24C26.9805 33.2431 27.4063 33.4433 27.6798 33.8385C27.7864 33.989 27.8629 34.1717 27.908 34.3884C27.9537 34.6056 27.9758 34.8869 27.9746 35.2328V37.5042C27.9711 37.8059 27.9856 38.0303 28.0175 38.1776C28.0494 38.325 28.1192 38.4219 28.2262 38.4684C28.3338 38.5149 28.4988 38.5376 28.7214 38.536V38.7842H26.0584V38.536C26.2714 38.5376 26.4294 38.5149 26.5326 38.4684C26.6359 38.4219 26.7031 38.325 26.7336 38.1776C26.7651 38.0303 26.7789 37.8059 26.776 37.5042V35.2429C26.7784 34.7004 26.7146 34.3088 26.5857 34.0686C26.4564 33.8277 26.248 33.7101 25.9601 33.7149C25.6146 33.7079 25.323 33.897 25.0859 34.2827C24.8814 34.6042 24.7795 34.9524 24.781 35.3258V37.5042C24.7781 37.8059 24.792 38.0303 24.8232 38.1776C24.8547 38.325 24.9227 38.4219 25.0271 38.4684C25.1319 38.5149 25.292 38.5376 25.5084 38.536V38.7842H22.8749V38.536C23.0877 38.5376 23.246 38.5149 23.3493 38.4684C23.4524 38.4219 23.5195 38.325 23.5501 38.1776C23.5813 38.0303 23.5956 37.8059 23.592 37.5042V35.2328C23.5971 34.2103 23.3319 33.7046 22.7962 33.7149C22.4631 33.7275 22.1836 33.8938 21.9588 34.2128C21.7335 34.5326 21.6164 34.9311 21.6077 35.4082V37.5042C21.6046 37.8092 21.6184 38.0359 21.6495 38.1825C21.6805 38.3296 21.7474 38.4258 21.8506 38.4707C21.9539 38.5157 22.1118 38.5376 22.3249 38.536V38.7842H19.6619V38.536C19.8849 38.5376 20.0493 38.5157 20.157 38.4707C20.2641 38.4258 20.3339 38.3296 20.3658 38.1825C20.3979 38.0359 20.4122 37.8092 20.4086 37.5042V34.6341C20.4191 34.2136 20.3788 33.9418 20.2882 33.8174C20.1979 33.6922 19.9958 33.6347 19.6819 33.6425V33.3943L21.5977 33.2604Z" fill="black"/>
<path fill-rule="evenodd" clip-rule="evenodd" d="M35.7071 33.7331V37.1814C35.7067 37.4058 35.7147 37.5917 35.7305 37.739C35.7462 37.8862 35.7713 38.0098 35.8053 38.1106C35.8467 38.2258 35.9112 38.3178 35.9978 38.3873C36.085 38.4557 36.1815 38.4911 36.2864 38.4927C36.4965 38.4896 36.7256 38.3824 36.9747 38.1731L37.1121 38.4304C36.7175 38.7786 36.269 38.9504 35.7662 38.9471C35.2238 38.9386 34.854 38.7487 34.6556 38.3793C34.6168 38.2974 34.5865 38.2045 34.5649 38.099C34.5439 37.9942 34.5287 37.8532 34.5203 37.6744C34.512 37.4963 34.5078 37.2561 34.5082 36.9544V33.7331H33.9482V33.4235C34.1625 33.4148 34.3436 33.3675 34.4924 33.2816C34.6414 33.1951 34.771 33.0605 34.882 32.8761C34.9688 32.7359 35.0406 32.5799 35.0966 32.4091C35.153 32.238 35.2024 32.0254 35.2454 31.771L35.7368 31.7199C35.7303 31.8561 35.7243 31.9948 35.7201 32.1357C35.716 32.2759 35.7125 32.4452 35.7105 32.6428C35.7082 32.8405 35.7071 33.0942 35.7071 33.4022H36.8962V33.7331H35.7071Z" fill="black"/>
<path fill-rule="evenodd" clip-rule="evenodd" d="M33.9434 38.566V38.7841C33.6561 38.804 33.5399 38.804 33.2377 38.804C32.9979 38.804 32.7495 38.7998 32.5434 38.7188C32.416 38.6683 32.3449 38.6251 32.2498 38.5203C32.1834 38.4093 32.1412 38.4028 32.12 38.095C31.8662 38.3832 31.6023 38.5942 31.328 38.7306C31.053 38.866 30.7572 38.9331 30.44 38.9316C29.9683 38.926 29.5994 38.7897 29.333 38.5211C29.0667 38.2525 28.9317 37.8832 28.9266 37.4137C28.9249 36.5276 29.449 35.9769 30.4985 35.7619C30.972 35.6651 31.5089 35.5998 32.1102 35.5651V34.894C32.1151 34.3567 32.0609 33.9843 31.9481 33.7771C31.8349 33.5699 31.6335 33.4708 31.3438 33.4803C31.0358 33.4731 30.8165 33.5904 30.6854 33.8308C30.6379 33.9142 30.603 34.0087 30.581 34.1167C30.5593 34.2238 30.5415 34.3725 30.5283 34.564C30.5205 34.7483 30.4697 34.879 30.3758 34.9563C30.2821 35.0342 30.1331 35.072 29.9288 35.0704C29.4735 35.0666 29.2443 34.9081 29.2411 34.5954C29.2425 34.4127 29.2964 34.2379 29.4022 34.0725C29.5077 33.9062 29.6573 33.7605 29.8505 33.6346C30.2594 33.37 30.7967 33.2392 31.462 33.2424C32.1381 33.2392 32.6228 33.3801 32.9159 33.666C33.0481 33.7969 33.1451 33.9638 33.2071 34.1662C33.2692 34.3695 33.2997 34.6295 33.299 34.9468L33.289 35.8447L33.2794 36.7426C33.2714 37.0373 33.2678 37.223 33.2696 37.3001C33.266 37.6729 33.2772 37.9445 33.303 38.1156C33.3289 38.2872 33.3572 38.3628 33.4641 38.4558C33.6517 38.5685 33.8127 38.5653 33.9434 38.566ZM32.1102 36.5984V35.8038C31.4067 35.8535 30.9077 35.9902 30.6129 36.2133C30.3187 36.4369 30.1755 36.7851 30.1844 37.2586C30.1873 37.6302 30.2598 37.9249 30.4019 38.143C30.5435 38.3613 30.7365 38.4723 30.9802 38.4769C31.1801 38.4754 31.3646 38.4148 31.5341 38.295C31.7034 38.1761 31.8363 38.0091 31.9333 37.7958C31.9964 37.6651 32.0417 37.5059 32.07 37.3167C32.0973 37.1278 32.1109 36.8883 32.1102 36.5984Z" fill="black"/>
<path fill-rule="evenodd" clip-rule="evenodd" d="M42.4035 38.566V38.7841C42.116 38.8039 42 38.8047 41.6978 38.8047C41.4578 38.8047 41.21 38.8007 41.0033 38.7195C40.8759 38.6693 40.805 38.6266 40.71 38.5203C40.6435 38.41 40.6011 38.4035 40.5801 38.0957C40.3263 38.3832 40.0624 38.595 39.7879 38.7314C39.5131 38.866 39.2171 38.9338 38.8999 38.9323C38.4282 38.9266 38.0595 38.7896 37.7931 38.5218C37.5268 38.2533 37.3917 37.8839 37.3865 37.4144C37.385 36.5283 37.9091 35.9778 38.9586 35.7628C39.4321 35.6658 39.969 35.6005 40.5701 35.5658V34.8948C40.575 34.3576 40.5208 33.9851 40.408 33.7771C40.2949 33.5698 40.0934 33.4715 39.8037 33.4811C39.4959 33.474 39.2764 33.5914 39.1453 33.8314C39.0978 33.915 39.0629 34.0094 39.0411 34.1174C39.0193 34.2245 39.0016 34.3733 38.9885 34.5647C38.9806 34.7483 38.9298 34.879 38.8357 34.9571C38.7422 35.035 38.5932 35.0727 38.3887 35.0712C37.9335 35.0674 37.7044 34.9091 37.701 34.5963C37.7024 34.4134 37.7563 34.2386 37.8621 34.0733C37.9676 33.9072 38.1174 33.7613 38.3104 33.6361C38.7195 33.3708 39.2568 33.2399 39.9219 33.2432C40.598 33.2399 41.0829 33.3809 41.376 33.6668C41.5082 33.7976 41.6051 33.9647 41.667 34.167C41.729 34.3702 41.7598 34.6302 41.7589 34.9468L41.7491 35.8454L41.7395 36.7434C41.7315 37.0378 41.7279 37.2237 41.7295 37.3009C41.7261 37.6734 41.7373 37.9453 41.7629 38.1163C41.789 38.2879 41.8171 38.3637 41.9242 38.4565C42.1116 38.5693 42.2728 38.5653 42.4035 38.566ZM40.5701 36.5994V35.8037C39.8666 35.8542 39.3677 35.9912 39.073 36.214C38.7781 36.4378 38.6354 36.7858 38.6443 37.2594C38.6474 37.6312 38.7199 37.9256 38.8618 38.1437C39.0036 38.362 39.1966 38.4731 39.4401 38.4776C39.6402 38.4761 39.8247 38.4155 39.9942 38.2957C40.1633 38.1769 40.2964 38.0098 40.393 37.7965C40.4564 37.6656 40.5018 37.5066 40.5297 37.3174C40.5574 37.1285 40.571 36.8891 40.5701 36.5994Z" fill="black"/>
</g>
</svg>
