<svg width="70" height="50" viewBox="0 0 70 50" fill="none" xmlns="http://www.w3.org/2000/svg">
<rect width="70" height="50" rx="4" fill="#F6F6F6"/>
<path d="M25.3979 18.5438H39.2278V26.8239H33.426L39.2278 32.1234H34.2989L28.6091 26.8239V32.1234H25.3979V23.7056H35.5377V21.6905H25.3979V18.5438Z" fill="black"/>
<path fill-rule="evenodd" clip-rule="evenodd" d="M44.0437 32.1233V18.5162H40.6636L40.6638 32.1233H44.0437Z" fill="black"/>
<path d="M13.5966 28.8388V18.5438H10.9491C10.4705 18.5438 10.104 18.903 10.104 19.3438C10.104 21.7734 10.0762 28.9216 10.0762 31.2952C10.0762 31.7367 10.4423 32.1234 10.893 32.1234H18.7506V28.8388H13.5966Z" fill="black"/>
<path fill-rule="evenodd" clip-rule="evenodd" d="M23.9618 35.5182V28.7006H20.4971V35.5182H23.9618Z" fill="black"/>
<path d="M15.2867 18.5438V21.9384H20.4971V27.0173H23.9619V19.372C23.9619 18.93 23.5951 18.5711 23.1453 18.5438H15.2867Z" fill="black"/>
<path d="M15.2867 23.5943V27.0446H18.723V23.5943H15.2867ZM17.7091 25.9956H16.3006V24.616H17.7091V25.9956Z" fill="black"/>
<path d="M60.6335 28.701V33.7793C60.6335 34.2206 60.2389 34.5798 59.7889 34.5798H54.6066V35.4075H60.6623C61.0842 35.4075 61.4501 35.0488 61.4501 34.6073V28.701H60.6335Z" fill="black"/>
<path d="M8.6676 21.9111V16.8323C8.6676 16.391 9.00587 16.0596 9.45612 16.0596H14.6389C14.6672 16.0596 14.6672 16.0321 14.6672 16.0321V15.2592C14.6672 15.2592 14.6672 15.2321 14.6389 15.2321H8.6676C8.18906 15.2321 7.82251 15.591 7.82251 16.0596L7.82274 21.9111C7.82274 21.9384 7.85102 21.9384 7.85102 21.9384H8.63932C8.63932 21.9384 8.6676 21.9384 8.6676 21.9111Z" fill="black"/>
<path d="M59.1687 21.9111V18.5438H45.5083V26.9898H54.6065V28.6731H45.5083V32.0679H59.1687V23.6226H50.0713V21.9111H59.1687Z" fill="black"/>
</svg>
