<svg width="70" height="50" viewBox="0 0 70 50" fill="none" xmlns="http://www.w3.org/2000/svg">
<rect width="70" height="50" rx="4" fill="#123274"/>
<mask id="mask0_0_105" style="mask-type:luminance" maskUnits="userSpaceOnUse" x="0" y="0" width="70" height="50">
<rect width="70" height="50" rx="4" fill="white"/>
</mask>
<g mask="url(#mask0_0_105)">
<path fill-rule="evenodd" clip-rule="evenodd" d="M19.4506 33.3676C19.4457 33.7541 19.933 33.7959 20.2283 33.7959H20.3872C20.4161 33.7959 20.4394 33.795 20.4741 33.791C21.171 33.755 21.1658 33.4919 21.1658 33.3676C21.1636 33.3021 21.1636 33.2338 21.1658 33.1568V18.7387C21.171 18.3535 20.6812 18.3076 20.3872 18.3076H20.2283C19.933 18.3076 19.4457 18.3535 19.4506 18.7387C19.4506 18.8205 19.4482 18.8984 19.4482 18.9799V33.1245C19.4482 33.1322 19.4482 33.1433 19.4506 33.1645" fill="#E2051D"/>
<path fill-rule="evenodd" clip-rule="evenodd" d="M10.3031 33.3676C10.2979 33.7541 10.7858 33.7959 11.0805 33.7959H11.239C11.2682 33.7959 11.2919 33.795 11.3263 33.791C12.0232 33.755 12.018 33.4919 12.018 33.3676C12.0164 33.3021 12.0164 33.2338 12.018 33.1568V18.7387C12.0232 18.3535 11.5334 18.3076 11.239 18.3076H11.0805C10.7858 18.3076 10.2979 18.3535 10.3031 18.7387C10.3031 18.8205 10.2997 18.8984 10.2997 18.9799V33.1245C10.2997 33.1322 10.2997 33.1433 10.3031 33.1645" fill="#E2051D"/>
<path fill-rule="evenodd" clip-rule="evenodd" d="M13.3518 33.3676C13.3481 33.7541 13.8348 33.7959 14.1301 33.7959H14.2886C14.3178 33.7959 14.3415 33.795 14.3762 33.791C15.0727 33.755 15.0678 33.4919 15.0678 33.3676C15.0647 33.3021 15.0647 33.2338 15.0678 33.1568V18.7387C15.0727 18.3535 14.583 18.3076 14.2886 18.3076H14.1301C13.8348 18.3076 13.3481 18.3535 13.3518 18.7387C13.3518 18.8205 13.3499 18.8984 13.3499 18.9799V33.1245C13.3499 33.1322 13.3499 33.1433 13.3518 33.1645" fill="#E2051D"/>
<path fill-rule="evenodd" clip-rule="evenodd" d="M16.4017 33.3676C16.3971 33.7541 16.8841 33.7959 17.1791 33.7959H17.338C17.3668 33.7959 17.3905 33.795 17.4246 33.791C18.1221 33.755 18.1159 33.4919 18.1159 33.3676C18.1147 33.3021 18.1147 33.2338 18.1159 33.1568V18.7387C18.1221 18.3535 17.6317 18.3076 17.338 18.3076H17.1791C16.8841 18.3076 16.3971 18.3535 16.4017 18.7387C16.4017 18.8205 16.3983 18.8984 16.3983 18.9799V33.1245C16.3983 33.1322 16.3983 33.1433 16.4017 33.1645" fill="#E2051D"/>
<path fill-rule="evenodd" clip-rule="evenodd" d="M8.42713 25.1939C8.0412 25.189 8.00003 25.677 8.00003 25.9733V26.1327C8.00003 26.1616 8.00095 26.185 8.00372 26.2192C8.03967 26.9164 8.30238 26.9115 8.42713 26.9115C8.49288 26.9096 8.56017 26.9096 8.63791 26.9115H23.0353C23.4203 26.9164 23.4655 26.4265 23.4655 26.1327V25.9733C23.4655 25.677 23.4203 25.189 23.0353 25.1939C22.9539 25.1939 22.8761 25.1912 22.7941 25.1912H8.66925C8.66157 25.1912 8.65235 25.1912 8.62992 25.1939" fill="#E2051D"/>
<path fill-rule="evenodd" clip-rule="evenodd" d="M44.7732 19.4427C40.6611 19.4427 38.8277 21.4707 38.8277 26.0181C38.8277 30.4597 40.7386 32.6338 44.6691 32.6612H44.8608C48.7984 32.6415 50.7132 30.468 50.7132 26.0181C50.7132 21.4707 48.8813 19.4427 44.7732 19.4427ZM44.7843 30.7132H44.7542C42.3938 30.7132 41.4738 29.3895 41.4738 25.9966C41.4738 22.64 42.3563 21.3926 44.7302 21.3926H44.8067C47.1812 21.3926 48.0643 22.64 48.0643 25.9966C48.0643 29.3895 47.1444 30.7132 44.7843 30.7132Z" fill="white"/>
<path fill-rule="evenodd" clip-rule="evenodd" d="M28.2601 31.6549C29.094 32.2998 30.2284 32.5749 32.0542 32.5749H32.1697C34.009 32.5749 35.1468 32.2998 35.9739 31.6558C37.1741 30.7414 37.3763 29.666 37.3763 27.5989L37.3784 20.1832C37.3797 20.0755 37.3821 19.9401 37.2623 19.8189C37.073 19.6266 36.6511 19.5297 36.0084 19.5297C35.3714 19.5297 34.9532 19.6266 34.7646 19.8177C34.6438 19.9398 34.6459 20.0755 34.6475 20.1844L34.6478 21.5207V27.9321C34.6481 29.2226 34.6481 29.4912 34.0754 29.9641C33.5478 30.393 32.7508 30.449 32.1156 30.449C31.4808 30.449 30.6844 30.393 30.1572 29.9641C29.5863 29.4952 29.5863 29.2309 29.5866 27.9607L29.5872 20.1844C29.5893 20.0755 29.5909 19.9401 29.4704 19.8177C29.2815 19.6266 28.862 19.5297 28.2229 19.5297C27.5823 19.5297 27.1626 19.6266 26.9742 19.8183C26.8532 19.9401 26.8553 20.0755 26.8565 20.1838L26.8572 20.2155V27.5989C26.8572 29.6647 27.0596 30.7404 28.2601 31.6549Z" fill="white"/>
<path fill-rule="evenodd" clip-rule="evenodd" d="M60.9815 20.2996C60.3024 19.7941 59.4919 19.6147 57.8846 19.6147H52.5978C52.3576 19.6147 52.1621 19.8098 52.1621 20.0495V32.0519C52.1621 32.2941 52.3576 32.4895 52.5978 32.4895H58.1439C59.6492 32.4895 60.7019 32.4411 61.5757 31.7811C62.5565 31.0196 62.763 29.7722 62.763 28.8599C62.763 27.655 62.359 26.7008 61.6258 26.1741C61.3078 25.9368 60.9317 25.7944 60.5738 25.6685L60.3341 25.5842L60.5633 25.4744C61.643 24.9581 62.0385 24.2402 62.0216 22.8251C62.0121 22.1633 61.8646 20.9538 60.9815 20.2996ZM54.8541 21.4144H57.8072C59.3364 21.4144 59.4578 22.1904 59.4578 23.2055C59.4578 24.4187 58.9023 24.9356 57.6019 24.9356H54.8541V21.4144ZM57.7466 30.6458H54.8519V26.7618H57.9565C59.6778 26.7618 60.0238 27.5116 60.0238 28.7233C60.0238 30.355 59.4274 30.6458 57.7466 30.6458Z" fill="white"/>
</g>
</svg>
