<svg width="70" height="50" viewBox="0 0 70 50" fill="none" xmlns="http://www.w3.org/2000/svg">
<rect width="70" height="50" rx="4" fill="#0742A6"/>
<path fill-rule="evenodd" clip-rule="evenodd" d="M32.0224 31.744H28.4827L30.6966 18.4119H34.2361L32.0224 31.744Z" fill="white"/>
<path fill-rule="evenodd" clip-rule="evenodd" d="M44.854 18.7378C44.1558 18.4681 43.0484 18.1702 41.6791 18.1702C38.1836 18.1702 35.722 19.9856 35.7069 22.5809C35.6779 24.4958 37.4693 25.5594 38.8092 26.1979C40.1786 26.8503 40.6441 27.2761 40.6441 27.8577C40.6302 28.7508 39.5375 29.1626 38.5184 29.1626C37.1052 29.1626 36.348 28.9503 35.1973 28.4534L34.7312 28.2404L34.2358 31.2331C35.066 31.6015 36.5956 31.9284 38.1836 31.9427C41.8977 31.9427 44.3157 30.1554 44.3443 27.3896C44.3584 25.8719 43.4125 24.709 41.3731 23.7588C40.1351 23.1487 39.3769 22.7374 39.3769 22.1133C39.3914 21.5458 40.0182 20.9647 41.4157 20.9647C42.5664 20.9362 43.4119 21.2056 44.0524 21.4752L44.3726 21.6167L44.854 18.7378Z" fill="white"/>
<path fill-rule="evenodd" clip-rule="evenodd" d="M51.1899 18.4119H53.9278L56.7835 31.7438H53.5061C53.5061 31.7438 53.1853 30.212 53.0837 29.7439H48.539C48.4076 30.0983 47.7961 31.7438 47.7961 31.7438H44.082L49.3398 19.5181C49.7041 18.6528 50.3456 18.4119 51.1899 18.4119ZM50.9717 23.2907C50.9717 23.2907 49.85 26.255 49.5585 27.0209H52.5007C52.3551 26.3543 51.6848 23.1631 51.6848 23.1631L51.4374 22.0143C51.3333 22.3101 51.1826 22.7168 51.081 22.9911C51.0121 23.1771 50.9658 23.3022 50.9717 23.2907Z" fill="white"/>
<path fill-rule="evenodd" clip-rule="evenodd" d="M25.5261 18.4119L22.0595 27.5031L21.6807 25.6593C21.0398 23.5318 19.0299 21.2203 16.7869 20.0709L19.9621 31.7299H23.7052L29.269 18.4119H25.5261V18.4119Z" fill="white"/>
<path fill-rule="evenodd" clip-rule="evenodd" d="M18.8407 18.4119H13.1457L13.0874 18.6813C17.5299 19.7876 20.472 22.4545 21.6808 25.6599L20.4428 19.5326C20.239 18.6811 19.6126 18.44 18.8407 18.4119Z" fill="white"/>
</svg>
